/* XPM */
static char *result[] = {
/* columns rows colors chars-per-pixel */
"44 44 188 2 ",
"   c #2F2F2E",
".  c #31312F",
"X  c #2E3333",
"o  c #323332",
"O  c #383434",
"+  c #373938",
"@  c #3B3D3D",
"#  c #7F1F1F",
"$  c #432F2F",
"%  c #4A2D2D",
"&  c #433737",
"*  c #443C3A",
"=  c #593C39",
"-  c #552A2A",
";  c #652727",
":  c #7B2020",
">  c #722625",
",  c #603F3F",
"<  c #6F3E3E",
"1  c #793838",
"2  c #6D403F",
"3  c #754137",
"4  c #3E3F43",
"5  c #3F4646",
"6  c #404646",
"7  c #44444B",
"8  c #464E4E",
"9  c #4A4F4F",
"0  c #524D4C",
"q  c #5B4D49",
"w  c #524440",
"e  c #47504F",
"r  c #49504F",
"t  c #464650",
"y  c #4A4D53",
"u  c #4D4D5A",
"i  c #465051",
"p  c #495051",
"a  c #515759",
"s  c #535A5D",
"d  c #634C47",
"f  c #6E4943",
"g  c #774545",
"h  c #7B4646",
"j  c #734B42",
"k  c #7A4A40",
"l  c #655352",
"z  c #5A5C62",
"x  c #57576A",
"c  c #59596C",
"v  c #545464",
"b  c #5F5F75",
"n  c #5A6165",
"m  c #62656A",
"M  c #6A6C74",
"N  c #6B6F79",
"B  c #656979",
"V  c #6B707B",
"C  c #76767D",
"Z  c #756A73",
"A  c #8B1D1D",
"S  c #9A1919",
"D  c #8D3735",
"F  c #B62020",
"G  c #BC2E24",
"H  c #A63C2F",
"J  c #A9352B",
"K  c #B0372B",
"L  c #C70E0E",
"P  c #D20B0B",
"I  c #DA0808",
"U  c #D91915",
"Y  c #C81E1A",
"T  c #EB0909",
"R  c #E70A0A",
"E  c #F60403",
"W  c #FF0000",
"Q  c #FF0C0C",
"!  c #E21310",
"~  c #FF1515",
"^  c #FF1A1A",
"/  c #E6110D",
"(  c #CB251C",
")  c #FF2424",
"_  c #FF2929",
"`  c #FE3B3B",
"'  c #8B4A3C",
"]  c #974637",
"[  c #934839",
"{  c #9A4938",
"}  c #A14537",
"|  c #864848",
" . c #824E45",
".. c #924C4C",
"X. c #875757",
"o. c #8A5858",
"O. c #9C5A5A",
"+. c #A04E4A",
"@. c #BA5248",
"#. c #AB5454",
"$. c #B45454",
"%. c #B65E5E",
"&. c #BA5D5D",
"*. c #996367",
"=. c #AA6061",
"-. c #CD5959",
";. c #D05951",
":. c #FE4343",
">. c #FF4B4B",
",. c #F74747",
"<. c #FF5353",
"1. c #FF5A5A",
"2. c #E65F5B",
"3. c #EB615E",
"4. c #D26060",
"5. c #E86363",
"6. c #F36464",
"7. c #FF6666",
"8. c #FF6A6A",
"9. c #E27070",
"0. c #FF7777",
"q. c #FF7B7B",
"w. c #666680",
"e. c #7A7B83",
"r. c #7B7C8B",
"t. c #737587",
"y. c #757593",
"u. c #7C7CA0",
"i. c #7E8285",
"p. c #81828C",
"a. c #878C8C",
"s. c #848493",
"d. c #8C8C94",
"f. c #85879C",
"g. c #96999C",
"h. c #90909B",
"j. c #8484AD",
"k. c #8B8BA6",
"l. c #9697AF",
"z. c #8C8CB9",
"x. c #8A8AB2",
"c. c #9B9BB4",
"v. c #9C9DBC",
"b. c #9595B9",
"n. c #A1A1BB",
"m. c #FF8080",
"M. c #FF8D8D",
"N. c #FF9A9A",
"B. c #FCA4A4",
"V. c #9595C7",
"C. c #9999CD",
"Z. c #9696C8",
"A. c #9F9FD2",
"S. c #A4A4C1",
"D. c #A9A9C5",
"F. c #A9A9CA",
"G. c #B8B9CB",
"H. c #A3A3D6",
"J. c #ACACD4",
"K. c #A5A5D9",
"L. c #B3B5DA",
"P. c #B7B8DA",
"I. c #B3B3E4",
"U. c #BBBBE2",
"Y. c #BABAEC",
"T. c #C6C7CE",
"R. c #C0C0C4",
"E. c #CDCDDC",
"W. c #C4C5DA",
"Q. c #D5D5D8",
"!. c #FCC2C2",
"~. c #FBC8C8",
"^. c #D8D8E4",
"/. c #C2C2F4",
"(. c #C7C6F9",
"). c #CDCDFE",
"_. c #D4D4FF",
"`. c #DCDCF7",
"'. c #C8C8E1",
"]. c #E3E3E5",
"[. c #E5E5EB",
"{. c #E8E8EE",
"}. c #EBEBF5",
"|. c #F3F3F4",
" X c #F8F6F6",
".X c #F9F9F9",
"XX c #F0F0FC",
"oX c None",
/* pixels */
"oXoXoXoXoXoXoXoXoXoXoXoXoXoXoXO o o O o o o O o o o o o O oXoXoXoXoXoXoXoXoXoXoXoXoXoXoX",
"oXoXoXoXoXoXoXoXoXoXoXoXoXoXO O O O O O O O O O O O O O O oXoXoXoXoXoXoXoXoXoXoXoXoXoXoX",
"oXoXoXoXoXoXoXoXoXoXo o o o h $.$.$.$.$.$.$.$.$.$.$.$.$.#., o o o o oXoXoXoXoXoXoXoXoXoX",
"oXoXoXoXoXoXoXoXoXoXo o o X ..6.8.7.7.7.7.8.7.7.7.8.7.7.5.= X X X o oXoXoXoXoXoXoXoXoXoX",
"oXoXoXoXoXoXoXoXoX2 g h h h $.7.7.7.7.7.7.7.7.7.7.7.7.7.6...h 1 : > oXoXoXoXoXoXoXoXoXoX",
"oXoXoXoXoXoXoXo X | 5.6.6.6.6.7.7.7.7.7.7.7.7.7.7.7.7.7.7.6.6.` E I - X oXoXoXoXoXoXoXoX",
"oXoXoXoXoXoXoX& & ..8.8.8.8.7.7.7.7.7.7.7.7.7.7.7.7.7.7.7.7.7.` Q ! ; $ $ oXoXoXoXoXoXoX",
"oXoXoXoXoXo & #.-.9.M.M.M.M.q.7.7.7.7.7.7.7.7.7.7.7.7.7.7.7.7.1.<.,.U L A o o oXoXoXoXoX",
"oXoXoXoXoXo & -.7.q.N.N.N.N.q.7.7.7.7.7.7.7.7.7.7.7.7.7.7.7.7.7.8.1.~ W S X o oXoXoXoXoX",
"oXoXoXoX, | ..9.q.N.!.!.!.!.B.q.0.8.7.7.7.7.7.7.7.7.7.7.7.7.7.7.7.1.~ W L A # $ oXoXoXoX",
"oXoXo o h 6.6.M.B.B. X X X X~.N.M.8.7.7.7.7.7.7.7.7.7.7.7.7.7.7.7.1.~ W E W P % o oXoXoX",
"oXoXo o h 6.8.M.B.!. X.X X.X~.N.M.8.7.7.7.7.7.7.7.7.7.7.7.7.7.7.7.1.~ W W W P % o oXoXoX",
"oXoXo X g 6.8.M.N.!. X.X.X.X~.N.M.8.8.8.7.7.7.7.7.7.7.7.7.7.7.7.7.1.~ W W W P % o oXoXoX",
"oXoXo X h 6.8.M.N.!. X.X X.X~.N.M.8.7.7.7.7.7.7.7.7.7.7.7.7.7.7.7.1.~ W W W P % X oXoXoX",
"oXO h ..$.7.8.q.m.N.~.~.~.~.B.m.q.8.7.7.7.7.7.7.7.7.7.7.7.7.7.7.7.1.~ W W W R S A ; oXoX",
"o O $.7.7.7.7.7.7.q.N.N.N.N.m.7.7.7.7.7.7.7.7.7.7.7.7.7.7.7.7.8.8.1.~ W W W W W E : o o ",
". O $.7.7.7.7.7.7.0.M.M.M.M.q.7.7.7.7.7.7.7.7.7.7.7.7.7.7.7.7.1.<.>.Q W W W W W E : o o ",
"o O $.8.7.7.7.7.7.8.8.8.8.8.8.7.7.7.7.7.7.7.7.7.7.7.7.7.7.7.7.:.~ Q W W W W W W E # o o ",
"o O $.7.7.7.7.7.7.7.7.7.8.7.7.7.7.7.7.7.7.7.7.7.7.7.7.7.7.7.8.` W W W W W W W W E : o o ",
"o O $.7.7.7.7.7.7.7.7.7.7.7.7.7.7.7.7.7.7.7.7.7.7.7.7.7.7.7.7.` W W W W W W W W E : o o ",
"o O $.8.7.7.7.7.7.7.7.7.7.7.7.7.7.7.7.7.7.7.7.7.7.7.7.7.7.7.7.` W W W W W W W W E # X o ",
"o O ..2.3.7.7.7.7.7.7.7.7.7.7.7.7.7.7.7.7.7.7.7.7.7.7.7.7.>.>._ W W W W W W E / U > o o ",
"o o 3 } @.7.7.7.7.7.7.7.7.7.8.8.7.7.7.7.7.7.7.7.7.7.7.7.1.^ W W W W W W W W / H ] =   o ",
"O o 3 { @.6.7.7.7.7.7.7.8.6.6.6.6.7.6.7.7.7.7.7.7.7.7.7.1.^ W W W W W W W W R ] [ = X o ",
"o O w d  .@.;.3.7.7.7.5.O.X.X.X.X.X.o.4.7.7.7.7.` ) ) ) ) Q W W W W W W U G J f q * o O ",
"o o 5 i d { { 2.7.7.7.3.l 5 i 5 8 8 e %.7.7.7.7.) W W W W W W W W W W W ( { ' 0 8 @ o o ",
"o o 5 e q 3 k =.%.%.&.=.C N e.a.i.V N *.%.-.:.:.^ W W W W U U Y F F F F H k f 9 9 @ O o ",
"o O 6 i p r r r r r r s k.n.W.|.].D.b.B i D E W W W W W E K { j 9 9 9 9 8 8 8 y e @ o o ",
"o O 6 9 p p a e r r e s l.D.E..X{.J.n.V 8 1 R T T T T T / H ' j 9 i p e e a y 9 8 @ o o ",
"oXoXO + e N M a e e e n T.{.{..X|.{.^.a.8 0 f < < < < < 2 q q 0 p p e p z M m 6 + O oXoX",
"oXoXo . 9 C C a e e e n Q..X.X.X.X.X Xa.8 p i i y e i i i i e i i e 8 8 m C M + o oXoXoX",
"oXoXo . s c.c.g.g.i.n M G.^.]..X|.^.E.i.8 p p e p 8 p e p e p a n m r.f.s.k.t.@ o oXoXoX",
"oXoXo o M (._.XX.XR.C r.c.S.E. X}.F.n.M 8 8 8 8 8 i 8 8 8 8 8 n C s.U.).I.C.j.4 o oXoXoX",
"oXoXo o M P.U.}..XT.a.d.l.b.G.[.Q.n.b.t.n z n n z n n z n n n N i.f.U.(.K.z.u.6 o oXoXoX",
"oXoXoXoXoXu z P._.`.].Q.h.p.d.d.d.p.p.n.P.L.L.P.L.L.L.L.L.L.L.I.U.P.K.H.y.t 7 oXoXoXoXoX",
"oXoXoXoXoX  4 F.).`..X[.d.C C C C C e.J.).).).).).).).).).).).).).(.H.Z.w.o o oXoXoXoXoX",
"oXoXoXoXoXoX4 e.s.c.'.U.D.n.n.n.n.n.n.U.).).).).).).).).(.Y.I.I.I.J.y.w.x o oXoXoXoXoXoX",
"oXoXoXoXoXoXoXo O b C.A./._.).).).).).).).).).).).).).).(.K.C.C.A.z.t o o oXoXoXoXoXoXoX",
"oXoXoXoXoXoXoXo . c j.x.F.J.P./././././././././././././.Y.b.j.j.j.u.t o oXoXoXoXoXoXoXoX",
"oXoXoXoXoXoXoXoXoX4 4 4 7 7 t.A.A.A.A.A.A.A.A.A.A.A.A.A.Z.v 4 5 4 4 oXoXoXoXoXoXoXoXoXoX",
"oXoXoXoXoXoXoXoXoXoXo o o o B V.Z.V.V.Z.V.V.Z.Z.V.V.V.V.z.t . o o o oXoXoXoXoXoXoXoXoXoX",
"oXoXoXoXoXoXoXoXoXoXoXoXoXoXu x x x x x x x x x x x x x x 7 oXoXoXoXoXoXoXoXoXoXoXoXoXoX",
"oXoXoXoXoXoXoXoXoXoXoXoXoXoXoXo o . o o o o . o o o o o o oXoXoXoXoXoXoXoXoXoXoXoXoXoXoX",
"oXoXoXoXoXoXoXoXoXoXoXoXoXoXoXo o o o o o o o o o o o o o oXoXoXoXoXoXoXoXoXoXoXoXoXoXoX"
};
