/* XPM */
static char *result[] = {
/* columns rows colors chars-per-pixel */
"64 64 96 2 ",
"   c #010101",
".  c #0C0C00",
"X  c #06060A",
"o  c #0B0B0B",
"O  c #141400",
"+  c #1B1B00",
"@  c #0E0E11",
"#  c #131314",
"$  c #1C1C1C",
"%  c #232300",
"&  c #2B2B00",
"*  c #343400",
"=  c #3A3A00",
"-  c #3A3A0B",
";  c #232313",
":  c #2F2F10",
">  c #2D2D1B",
",  c #393915",
"<  c #34341E",
"1  c #3C3C1C",
"2  c #202020",
"3  c #3D3D3F",
"4  c #444400",
"5  c #4B4B01",
"6  c #545401",
"7  c #5B5B00",
"8  c #5C5C0D",
"9  c #454519",
"0  c #646401",
"q  c #6B6B00",
"w  c #6E6E0D",
"e  c #737301",
"r  c #7B7B02",
"t  c #747408",
"y  c #656565",
"u  c #67676B",
"i  c #9D0000",
"p  c #A30600",
"a  c #9D2600",
"s  c #FF0000",
"d  c #FC0A00",
"f  c #FC1100",
"g  c #FF3E00",
"h  c #E94D00",
"j  c #FF4100",
"k  c #E56900",
"l  c #FF6300",
"z  c #FB6900",
"x  c #848401",
"c  c #8C8C00",
"v  c #838309",
"b  c #949400",
"n  c #9D9600",
"m  c #9C9C00",
"M  c #939308",
"N  c #A4A400",
"B  c #ACAC00",
"V  c #B4B400",
"C  c #BCBC00",
"Z  c #939323",
"A  c #DD8700",
"S  c #DC8A00",
"D  c #D6A400",
"F  c #CFBF00",
"G  c #D6B800",
"H  c #FEAA00",
"J  c #FFBE00",
"K  c #C5C500",
"L  c #CCCC00",
"P  c #D7C500",
"I  c #CAD200",
"U  c #D3D300",
"Y  c #D7D800",
"T  c #DBDB00",
"R  c #C7C718",
"E  c #E4E400",
"W  c #EBEB00",
"Q  c #F5F500",
"!  c #FFF400",
"~  c #FFFF00",
"^  c #FFFF08",
"/  c #FFFF25",
"(  c #FFFF31",
")  c #90904E",
"_  c #BFBF43",
"`  c #F4F45A",
"'  c #FFFF59",
"]  c #FFFF69",
"[  c #FCFC8A",
"{  c #FFFF91",
"}  c #ECECA3",
"|  c #FFFFBE",
" . c gray96",
".. c #F4F4F8",
"X. c #FFFFFF",
"o. c None",
/* pixels */
"o.o.o.o.o.o.o.o.o.o.o.o.o.o.o.o.o.o.o.o.o.o.o.o.o.o.o.o.o.o.o.o.o.o.o.o.o.o.o.o.o.o.o.o.o.o.o.o.o.o.o.o.o.o.o.o.o.o.o.o.o.o.o.o.",
"o.o.o.o.o.o.o.o.o.o.o.o.o.o.o.o.o.o.o.o.o.o.o.o.o.o.o.o.o.o.o.o.o.o.o.o.o.o.o.o.o.o.o.o.o.o.o.o.o.o.o.o.o.o.o.o.o.o.o.o.o.o.o.o.",
"o.o.o.o.o.o.o.o.o.o.o.o.o.o.o.o.o.o.o.#           o.o.o.o.o.o.o.o.o.o.o.o.o.o.o.o.o.o.o.o.o.o.o.o.o.o.o.    o o.o.o.o.o.o.o.o.o.",
"o.o.o.o.o.o.o.o.o.o.o.o.o.o.o.o.o.o.o.#           o.o.o.o.o.o.o.o.o.o.o.o.o.o.o.o.o.o.o.o.o.o.o.o.o.o.o.      o.o.o.o.o.o.o.o.o.",
"o.o.o.o.o.o.o.o.o.o.o.o.o.o.o.o.o.2 2 o           o.o.o.o.o.o.o.o.o.o.o.o.o.o.o.o.o.o.o.o.o.o.o.o.o.$ > r x r 1 2 o.o.o.o.o.o.o.",
"o.o.o.o.o.o.o.o.o.o.o.o.o.o.o.o.$                 o.o.o.o.o.o.o.o.o.o.o.o.o.o.o.o.o.o.o.o.o.o.o.o.o   + T ~ W %   o o.o.o.o.o.o.",
"o.o.o.o.o.o.o.o.o.o.o.o.o.o.o.o.$                 o.o.o.o.o.o.o.o.o.o.o.o.o.o.o.o.o.o.o.o.o.o.o.o.X   O U ~ E %   X o.o.o.o.o.o.",
"o.o.o.o.o.o.o.o.o.o.o.o.o.o.o.o.$     5 b x =     o.o.o.o.o.o.o.o.o.o.o.o.o.o.o.o.o.o.o.o.o.o.$ > v x b U E T x q t < $ o.o.o.o.",
"o.o.o.o.o.o.o.o.o.o.o.o.o.o.o.o.$     b ~ ~ q     o.o.o.o.o.o.o.o.o.o.o.o.o.o.o.o.o.o.o.o.o.o   O U ~ ~ U L L L U V +   o o.o.o.",
"o.o.o.o.o.o.o.o.o.o.o.o.o.o.o.o.$     c ~ ~ q     o.o.o.o.o.o.o.o.o.o.o.o.o.o.o.o.o.o.o.o.o.#   O U ~ Q U L L L U V +   o o.o.o.",
"o.o.o.o.o.o.o.o.o.o.o.o.o.o.o @ w b b U ~ ~ q     o.o.o.o.o.o.o.o.o.o.o.o.o.o o # o o o o ; v b b U E T L L L L L V %   o o.o.o.",
"o.o.o.o.o.o.o.o.o.o.o.o.o.2     x ~ ~ ~ ~ ~ q     o.o.o.o.o.o.o.o.o.o.o.o.X               . L ~ ~ U L L L L L L L V +   @ o.o.o.",
"o.o.o.o.o.o.o.o.o.o.o.o.o.$     x ~ ~ ~ ~ ~ q     o.o.o.o.o.o.o.o.o.o.o.o.X               . L ~ ~ U L L L L L L U V +   o o.o.o.",
"o.o.o.o.o.o.o.o.o.o.o.o.o.2     x ~ ~ W T E 7     o.o.o.o.o.o.o.X X   X X                 O V E T U L L L L K 0 6 6 o.o.o.o.o.o.",
"o.o.o.o.o.o.o.o.o.o.o.o.o.;     x ~ ~ E L L 6     o.o.o.o.o.o.#                           . N L L L L L L L V +   X o.o.o.o.o.o.",
"o.o.o.o.o.o.o.o.o.o.o.o.o.2     x ~ ~ E L L 7     o.o.o.o.o.o.$                           . N L L L L L L U V %   X o.o.o.o.o.o.",
"o.o.o.o.o.o.o.o.o.o.o.# @ w N m U ~ ~ ` } } _ N N 8 @ # o # # v N m N N m &         . 0 x x C L L L L C 0 5 5 o.o.o.o.o.o.o.o.o.",
"o.o.o.o.o.o.o.o.o.o.o.    x ~ ~ ~ ~ ~ { X.X.] ~ ~ 0           B ~ ~ ~ ~ ~ 4         . N U U L L L L U V +     o.o.o.o.o.o.o.o.o.",
"o.o.o.o.o.o.o.o.o.o.o.    x ~ ~ ~ ~ ~ [ X.X.] ~ ~ 0         . B ~ ~ ~ ~ Q 5         . m U L L L L L L V %   X o.o.o.o.o.o.o.o.o.",
"o.o.o.o.o.o.o.o.$ # t N N U ~ ~ ~ ~ ~ ( ' ' / ~ ~ L N N N N N E ~ ~ ~ ~ Q 5         . m L L L L K 0 5 5 o.o.o.o.o.o.o.o.o.o.o.o.",
"o.o.o.o.o.o.o.o.    r ~ ~ ~ ~ ~ ~ ~ ~ ~ ~ ~ ~ ~ ~ ~ ~ ~ ~ ~ ~ ~ ~ ~ ~ ~ Q 5         . N L L L L V %     o.o.o.o.o.o.o.o.o.o.o.o.",
"o.o.o.o.o.o.o.o.X   r ~ ~ ~ ~ ~ ~ ~ ~ ~ ~ ~ ~ ~ ~ ~ ~ ~ ~ ~ ~ ~ ~ ~ ~ ~ Q 5         O m L K L L K &   o o.o.o.o.o.o.o.o.o.o.o.o.",
"o.o.o.o.o.# # 2 o.o.R ~ ~ ~ ~ ~ ~ ~ ~ ~ ~ ~ ~ ~ ~ ~ ~ ~ ~ ~ ~ ~ ~ ~ E T U =     x V N 7 4 5 B L K m c x : @ # o.o.o.o.o.o.o.o.o.",
"o.o.o.o.o.    X o.o.o.~ ~ ~ ~ ~ ~ ~ ~ ~ ~ ~ ~ ~ ~ ~ ~ ~ ~ ~ ~ ~ ~ ~ T L K =   . C ~ Q =   . N L L L U C %   X o.o.o.o.o.o.o.o.o.",
"o.o.o.o.o.    X o.o.o.^ ~ ~ ~ ~ ~ ~ ~ ~ ~ ~ ~ ~ ~ ~ ~ ~ ~ ~ ~ ~ ~ ~ T L K =   . C ~ Q =   O N L K L U C %   X o.o.o.o.o.o.o.o.o.",
"o.o.o.o.o.    X o   M ~ ~ ~ ~ ~ ~ ~ ~ ~ ~ ~ ~ ~ ~ ~ ~ ~ ~ ~ ~ ~ ~ ~ Q Q W 4   . C ~ Q L V V 6 = 4 V U V +   X o.o.o.o.o.o.o.o.o.",
"o.o.o.o.o.          e ~ ~ ~ ~ ~ ~ ~ ~ ~ ~ ~ ~ ~ ~ ~ ~ ~ ~ ~ ~ ~ ~ ~ ~ ~ Q 5     K ~ ~ ~ ~ Q *   . N L C %     o.o.o.o.o.o.o.o.o.",
"o.o.o.o.o.      .   r ~ ~ ~ ~ ~ ~ ~ ~ ^ ^ ^ Q Q Q ~ ~ ~ ~ ~ ~ ~ ~ ~ ~ ~ Q 5   O C Q Q Q Q W =   O N L V %   o o.o.o.o.o.o.o.o.o.",
"o.o.o.o.o.    6 C C T ~ ~ ~ ~ ~ ~ ~ ~ ] | | ) = 4 V ~ ~ ~ ~ ~ ~ ~ ~ ~ ~ ~ V b b 7 4 4 4 4 5 x m b 5 * * o.o.o.o.o.o.o.o.o.o.o.o.",
"o.o.o.o.o.    e ~ ~ ~ ~ ~ ~ ~ ~ ~ ~ ~ { X.X.u     m ~ ~ ~ ~ ~ ~ ~ ~ ~ ~ ~ T U L *         . N U K %     o.o.o.o.o.o.o.o.o.o.o.o.",
"o.o.o.o.o.    e Q Q ~ ~ ~ ~ ~ ~ ~ ~ ~ [ .. .y     n ! ! ! ! ! ! ~ ~ ~ ~ Q T L K *         . m K V &   X o.o.o.o.o.o.o.o.o.o.o.o.",
"o.o.o.o.o.o.o., = = m ~ ~ ~ ~ ~ ~ ~ ~ Z 3 3 $     a j j g g j J ~ ~ E T T L L K *           & * * o.o.o.o.o.o.o.o.o.o.o.o.o.o.o.",
"o.o.o.o.o.o.o.o.    e ~ ~ ~ ~ ~ ~ ~ ~ q           i s s s s s H ~ ~ T L L L L K *               X o.o.o.o.o.o.o.o.o.o.o.o.o.o.o.",
"o.o.o.o.o.o.o.o.X   r Q W Q ~ ~ ~ ~ ~ r . O . . . p s s d d d H ~ Q T L L K F C *             X o o.o.o.o.o.o.o.o.o.o.o.o.o.o.o.",
"o.o.o.o.o.o.o.o.o.o.9 = = x T U W ~ ~ E K K L K K h s s k D D P T U I L K 7 & & .         X o.o.o.o.o.o.o.o.o.o.o.o.o.o.o.o.o.o.",
"o.o.o.o.o.o.o.o.o.o.o.    q L L E ~ ~ ~ ~ ~ ~ ~ ~ l s s A I I L L L L L K *               X o.o.o.o.o.o.o.o.o.o.o.o.o.o.o.o.o.o.",
"o.o.o.o.o.o.o.o.o.o.> O . e L L E Q ~ ~ ~ Q ~ ~ ~ z d f S L L L L L L L L 4 . . . O .     X o.o.o.o.o.o.o.o.o.o.o.o.o.o.o.o.o.o.",
"o.o.o.o.o.o.o.o.o @ t L L L L L U T U U U U Y U U G D D F L L L L L L L L B N N N N m &   o o.o.o.o.o.o.o.o.o.o.o.o.o.o.o.o.o.o.",
"o.o.o.o.o.o.o.o.    r ~ ~ W L L L L L L L L L L L L I L L L L L L L L L L L U I L U K *   X o.o.o.o.o.o.o.o.o.o.o.o.o.o.o.o.o.o.",
"o.o.o.o.o.o.o.o.X X t W W U C C K L U U U L L U L U U I U U L K C C L L L L L L K C V &   o o.o.o.o.o.o.o.o.o.o.o.o.o.o.o.o.o.o.",
"o.o.o.o.o.o.o.o.o.o., & & & % % b Q Q Q Q Q Q Q Q Q Q Q Q Q Q q % % m L L L L K 5 % % .   X o.o.o.o.o.o.o.o.o.o.o.o.o.o.o.o.o.o.",
"o.o.o.o.o.o.o.o.o.o.o.          x ~ ~ ~ ~ ~ ~ ~ ~ ~ ~ ~ ~ ~ ~ 6     c U L L L K *         o o.o.o.o.o.o.o.o.o.o.o.o.o.o.o.o.o.o.",
"o.o.o.o.o.o.o.o.o.o.o.X         x ~ Q ~ ~ ~ ~ ~ ~ ~ ~ ~ Q E E 7 O + b U L L L K 4 O O     X o.o.o.o.o.o.o.o.o.o.o.o.o.o.o.o.o.o.",
"o.o.o.o.o.o.o.o.o.o.o.o.o.$     e T U W ~ ~ ~ ~ ~ ~ ~ ~ e % & m T U U L L L L L V B N &   o o.o.o.o.o.o.o.o.o.o.o.o.o.o.o.o.o.o.",
"o.o.o.o.o.o.o.o.o.o.o.o.o.o.    e U L W ~ ~ ~ ~ ~ ~ ~ ~ 7     B ~ ~ T L L L L L L L K *   X o.o.o.o.o.o.o.o.o.o.o.o.o.o.o.o.o.o.",
"o.o.o.o.o.o.o.o.o.o.o.o.o.< + O q V V T Q ~ ~ Q ~ Q Q Q 0 O + m E E U L L L L L L L K &   o o.o.o.o.o.o.o.o.o.o.o.o.o.o.o.o.o.o.",
"o.o.o.o.o.o.o.o.o.o.o.o X 0 V V 0 + + x U U U U U U U U C V V 6 % % m L L L L L L L K *   o o.o.o.o.o.o.o.o.o.o.o.o.o.o.o.o.o.o.",
"o.o.o.o.o.o.o.o.o.o.o.    q U U 0     e U L L L L L L L L L L 4     c U L L L L L L K *   X o.o.o.o.o.o.o.o.o.o.o.o.o.o.o.o.o.o.",
"o.o.o.o.o.o.o.o.o.o.o.X   7 V V 6     0 V V V V V K L L L L L 7 + % b L L L L L V V B - X # o.o.o.o.o.o.o.o.o.o.o.o.o.o.o.o.o.o.",
"o.o.o.o.o.o.o.o.o.o.o.    . + + .     . + + + + + x L L L L L V V V K L L L L K 5 + + o.o.o.o.o.o.o.o.o.o.o.o.o.o.o.o.o.o.o.o.o.",
"o.o.o.o.o.o.o.o.o.o.o.                            r U L U L L L L U L L L L L L *   X o.o.o.o.o.o.o.o.o.o.o.o.o.o.o.o.o.o.o.o.o.",
"o.o.o.o.o.o.o.o.o.o.o.o o o o o o o o o o o o @ o t V V B B V V V B K L L V V N &   X o.o.o.o.o.o.o.o.o.o.o.o.o.o.o.o.o.o.o.o.o.",
"o.o.o.o.o.o.o.o.o.o.o.o.o.o.o.o.o.o.o.o.o.o.o.o.o.: O O + O O O O + b L L 4 O O     o o.o.o.o.o.o.o.o.o.o.o.o.o.o.o.o.o.o.o.o.o.",
"o.o.o.o.o.o.o.o.o.o.o.o.o.o.o.o.o.o.o.o.o.o.o.o.o.@                 c U K *         X o.o.o.o.o.o.o.o.o.o.o.o.o.o.o.o.o.o.o.o.o.",
"o.o.o.o.o.o.o.o.o.o.o.o.o.o.o.o.o.o.o.o.o.o.o.o.o.$ o o X     O % & m L K 6 % % .     o.o.o.o.o.o.o.o.o.o.o.o.o.o.o.o.o.o.o.o.o.",
"o.o.o.o.o.o.o.o.o.o.o.o.o.o.o.o.o.o.o.o.o.o.o.o.o.o.o.o.#     x F V L L L K C V &   o o.o.o.o.o.o.o.o.o.o.o.o.o.o.o.o.o.o.o.o.o.",
"o.o.o.o.o.o.o.o.o.o.o.o.o.o.o.o.o.o.o.o.o.o.o.o.o.o.o.o.$     c I I U U L U U L *   X o.o.o.o.o.o.o.o.o.o.o.o.o.o.o.o.o.o.o.o.o.",
"o.o.o.o.o.o.o.o.o.o.o.o.o.o.o.o.o.o.o.o.o.o.o.o.o.o.o.o.$   o r N N N N N N N N *   o o.o.o.o.o.o.o.o.o.o.o.o.o.o.o.o.o.o.o.o.o.",
"o.o.o.o.o.o.o.o.o.o.o.o.o.o.o.o.o.o.o.o.o.o.o.o.o.o.o.o.o.o.o.; O . . . . . . O o.o.o.o.o.o.o.o.o.o.o.o.o.o.o.o.o.o.o.o.o.o.o.o.",
"o.o.o.o.o.o.o.o.o.o.o.o.o.o.o.o.o.o.o.o.o.o.o.o.o.o.o.o.o.o.o.#                 o.o.o.o.o.o.o.o.o.o.o.o.o.o.o.o.o.o.o.o.o.o.o.o.",
"o.o.o.o.o.o.o.o.o.o.o.o.o.o.o.o.o.o.o.o.o.o.o.o.o.o.o.o.o.o.o.$ X X X o o X X o o.o.o.o.o.o.o.o.o.o.o.o.o.o.o.o.o.o.o.o.o.o.o.o.",
"o.o.o.o.o.o.o.o.o.o.o.o.o.o.o.o.o.o.o.o.o.o.o.o.o.o.o.o.o.o.o.o.o.o.o.o.o.o.o.o.o.o.o.o.o.o.o.o.o.o.o.o.o.o.o.o.o.o.o.o.o.o.o.o.",
"o.o.o.o.o.o.o.o.o.o.o.o.o.o.o.o.o.o.o.o.o.o.o.o.o.o.o.o.o.o.o.o.o.o.o.o.o.o.o.o.o.o.o.o.o.o.o.o.o.o.o.o.o.o.o.o.o.o.o.o.o.o.o.o.",
"o.o.o.o.o.o.o.o.o.o.o.o.o.o.o.o.o.o.o.o.o.o.o.o.o.o.o.o.o.o.o.o.o.o.o.o.o.o.o.o.o.o.o.o.o.o.o.o.o.o.o.o.o.o.o.o.o.o.o.o.o.o.o.o."
};
