/* XPM */
static char *result[] = {
/* columns rows colors chars-per-pixel */
"64 64 40 1 ",
"  c #759F77",
". c #77A179",
"X c #7BA57D",
"o c #7FA981",
"O c #83AD85",
"+ c #86B189",
"@ c #8AB58C",
"# c #8DB88F",
"$ c #8FB991",
"% c #93BD95",
"& c #96BF98",
"* c #97C199",
"= c #9BC59D",
"- c #9EC89F",
"; c #9FC6A1",
": c #9FC9A1",
"> c #A2C6A4",
", c #A2CBA4",
"< c #A7C7A9",
"1 c #A9C7AD",
"2 c #A6CAA8",
"3 c #A9CAAB",
"4 c #A5D0A7",
"5 c #A6D0A8",
"6 c #AAD4AC",
"7 c #B3CEB4",
"8 c #B6CFBA",
"9 c #AFD9B1",
"0 c #B5D0B6",
"q c #B3DDB5",
"w c #B7D2B8",
"e c #B8D4BA",
"r c #B6DFB8",
"t c #B7E1B9",
"y c #BAE4BC",
"u c #BEE7C0",
"i c #BFE9C1",
"p c #C2ECC3",
"a c #C6F0C8",
"s c #C9F3CB",
/* pixels */
"0<>>>,:-====:4,,,::=::4:::::::4,::**=:696,:==::,4,,::::::::::::2",
"0<>>,,::-==::,4,::--:::::::::::::=**=:5664::==:,,44,,:::::::::;,",
"w3<2>:::===:,,,,:::::::,::=:::4::==*::4664:===:,,4,,,::::::::;,<",
"w32>,,:::=:::,,,::::::::::::::::::==::465::===:,4,444,4,:4::::,2",
"w3<2,-:=---:::4::,,4,:,::::::::::::::4,44::==::,4,244,,,,::,::22",
"e3<,,::::-::::,:,44:4,::::::::::::::::,4,::==::4444444,4,,,:,,,2",
"e332,:::-=--::,:4:4,:,,,:::::::::,,,4,:,::====:4,444442,,,,::,>2",
"e322:::===-:::,4,,:,,44,:::::::::,4444::-====-::4,,4444,,:,:::,>",
"w3<2,:::====:,,,,,:,4,,,::===-==:,665,::=====;:::4,4444:,:4:::,2",
"w<2>>::==*==::44,,:,,44,::===*=-:6596,:==*==:::::,,44444,:::::;,",
"w3<,,:::===-:44,,,,,4444::=====-:4996,:=*==-::::,,,424,::,:::;>>",
"w3<>,::::=-:,,4444444,4,4::--=-:499994:==:::4,,:::,:4,4,,:::::,>",
"w3<,>::::,,,4445565555544:::::::499t99::;:,44,,:::4:,4:,::::::>>",
"w3<>,:::,,,444566996955,4,4,::::49ty994:::,464,,:::,,:::,,::::>>",
"w3<,::,,444542599999945444444:::69tut96::459964::::::,,::,:,:,:>",
"e3<,::,,699966599tyr9655556995549tuuy9944699964:,::::::,:::,,,,>",
"e3<,::,46qrq966qtypyq96469999999qtupyt9669qrq96,:::::::::,,4:,,2",
"e3<<,:26qyyq966qypait9669qttt999qyppuyq99qqytq644:::=::::4,,4,,2",
"e33,,:49ryutq99ruaspyq969tyyytt9typapytqqryyyq64::::=::::,4444,<",
"e1<2,,49ryytqqqtupapyt99ttyytttqyypppytqqtyytq94::::=:::4,,,,4,<",
"w32<,,469ttttttyuippytqqttyyyytyyuipuyytttyuyq944::==--::,,,4,22",
"0<>,,<669qttttyyuupuyyttytyyyyyyyuuiuyyttyyytq64:::====:,:4,24,2",
"7>><224699qttyuyuyyyyyyyytttyyyuyyyuyyyyyyyyt9644::=*==::,,,,,,2",
"7<,<4446669qtyuyytrtyyyytttttyyyyyytttttttttt964::::===::::,,2,,",
"3>><25544469qyyyt999qtyttq999tttytq9qqtttqqq9664,::=====:::::,,2",
"7<>>4554,,,9qyyt99499tttq96999ttt999999qqq996644,::===;:::::::>,",
"7>>>254,:::49tyq64:599tt9944999t9954499q9996442,,::-====-=::::;>",
"7>><244,:=:46qq964:4699996,45699954,46699644,44,4,::===:=:=:::,>",
"7<>,,,,,:::,59964,,44566444,446644,:,469964:::,,,,:::::==:=:::>>",
"7<<,>,:::::,,444,4,,,44,,,,,,445,::=:45665::::,44,44,,:::=:==:>>",
"81<,>:::::,:::::,4,,,::-::,,,,,,,==*=,465,:===,,,4,4,,::::=;;:>,",
"e12<>:-::,,::==-:,4,::=::::::,:::==*=,454:=**=:,444,,,,:::::::,>",
"e1>2::::::4:;===:44,::::;==;::,,:-=*-:,44::===:44,4,4::,,::::::>",
"w3<;2::,44::==*=::,,4,::====::44,,-=::,44::===:4,4,,::4:,4,:::;>",
"w3<2::,::4::=*==::,44,4::=*=::444,,-::,44::==::,4,,::::,44,,;;;;",
"w3:22::,:,::==*=::,,444,:=**::464,,-:,,,::::=::4,4,:::4,44,:::;>",
"71;2::,,4:,::;==::4,4,4::==*=::4,4:::,,44::=::::,,::;:44644,:::>",
"w<>;2,,::44::::::::,,,,4::===::::,::4:,,,:::=::::::-=:::442,::,>",
"732>,,:,:,:::::::4,::44:4:::::=;:::4:4,4::====-::::==::4554,,:,>",
"01>2,,4:4,:44:,,:::,4:,4::4::=*=*-:,,:4:::====;::::===:45544,,2<",
"0><>2,,:::44:,,::,::::::,,4::=$$*=:,,,,::::===***===::::,,,4,,22",
"w1>,,,,,4:::,44,::=;:::::4,::$$#$=:44:::::::;=*$$%*=::::=::,442,",
"71>>,,,,:::44,4,,::=====::4:*$+@$*:44:;==::::=$$@$*:::=**==:5522",
"7>>22,,:::::,45,:::=*=*=::::*#Oo@*:4,:=**::4:=$+O#*:4:=%$%=:4652",
"7<>>,,,,,:::,,44:==*****==:=$+oo+%=,::***=:::*@oo+%=::*$@$*:5623",
"0<>2,,,,:::4:44::=*******==*$+ooO$=:-*%$$*=:=%@ooO$*-=%$@$*:,5,2",
"7<>>,,,:::::444::=**$*$$***$$OoXO@%=*%$$$%*==$OX.o@%=*$@+@$=,22,",
"0<>2,,:,4:::::::=****$*$$%$$@oX.o@$*%$@++$%=*@o..o+%=%$+o+$=:,2>",
"7<>>,:,:,-,-,,--==*%$$$$$$@@+oX.oo@$$@@++@$$$@o. X+#%$#+O+$*::,>",
"0<>,>,-,-,:,:,:-==****$$$$@++oooO++@@++++@$$#+ooXoO+#@+++#$&;;>;",
"71>>,::,,,,::::-===**%$$@@+++++o+o++o+++++@@+oo+oooO++++##%&&;:;",
"71>>,-,:,,,-:---===**$$$@+ooo+++++ooooo++oooo+o++OOooO+#$%%%&&;;",
"0<>>>,:,,,,::--=::-=**$$@ooo++$@+ooooO+++ooooo@@#+oooo+$%&&&&&;;",
"72>>>,:,,,4,::=-:::==**$@++o+@$$$+oooo@@@++ooo@$$@OooO#$&=&&&&;;",
"02>>>,:,444::==:::::-**$$+oo@$**$$+o+@$$$@@++@$$*$@Oo+$%;==&&&=>",
"w1>>=::,:,,,:-=::::::-=%$@++$*===$@++$$*$$@++$*==$$+o+$*;;;=&&=>",
"73>>;::,444,:::::4,,::=*$@++$=:,=*$@$$***%$$$$*::*$@O#$=:::=*=;>",
"w3<>>::::,4:::::,,4,::=**$@$%;,,:*$$$**=;**$$*:::;%$#$*=::::=*;;",
"73>>:::,,,,4,::::,,,:::=**$**:,4::*%*=-:::;*=;::::*%$%*;:,::=;;>",
"012>;::::4,:::::,,,,:::-=*$*;:,4,::==:::::::::::::;=*=;:,:::;:2>",
"w3>;;;::::,:4:,,:2:,;:::====:,2524:::,,44,244,,,,,::;:::,::,::2>",
"71>>>;;,,>,,,,,,>>,,>;;;:;::::,5,,:2:,,4,,4,,,,:,,:2:;2:2:2::;>>",
"811>;>>>>;>>,,2,>>>>;;;;,,2222222:2;222222222222222;>>2,,22;<;>>",
"81<1<>>>>;>,<22<>>;>;;;>>23232;>;>>;2,2222>;;2;223>;;>22221>;<;<"
};
