/* XPM */
static char *result[] = {
/* columns rows colors chars-per-pixel */
"63 63 111 2 ",
"   c #16140E",
".  c #18160E",
"X  c #191711",
"o  c #1C1913",
"O  c #221E17",
"+  c #231F18",
"@  c #242017",
"#  c #262219",
"$  c #2A261D",
"%  c #2D291E",
"&  c #2E2B21",
"*  c #322D22",
"=  c #353125",
"-  c #393326",
";  c #3B3629",
":  c #3D392B",
">  c #423D2E",
",  c #453F30",
"<  c #42402F",
"1  c #434232",
"2  c #4A4434",
"3  c #4B4937",
"4  c #4D4638",
"5  c #4D4B39",
"6  c #504736",
"7  c #514937",
"8  c #524D3B",
"9  c #584F3D",
"0  c #54513E",
"q  c #59513F",
"w  c #574F40",
"e  c #575541",
"r  c #5A5542",
"t  c #5D5A45",
"y  c #5F5A49",
"u  c #635B46",
"i  c #635D49",
"p  c #695E4A",
"a  c #65624B",
"s  c #6B654D",
"d  c #6E684F",
"f  c #71664E",
"g  c #70684F",
"h  c #6B6551",
"j  c #6E6952",
"k  c #736B53",
"l  c #7A6E54",
"z  c #726F58",
"x  c #786D5A",
"c  c #7D7156",
"v  c #76725B",
"b  c #7C735B",
"n  c #7C795F",
"m  c #7F7661",
"M  c #7D7961",
"N  c #807257",
"B  c #83755A",
"V  c #87785D",
"C  c #88795E",
"Z  c #827661",
"A  c #847C64",
"S  c #8B7D63",
"D  c #868167",
"F  c #8E8065",
"G  c #868369",
"H  c #8C836B",
"J  c #8D896E",
"K  c #918167",
"L  c #93856C",
"P  c #93886E",
"I  c #98896F",
"U  c #8F8D72",
"Y  c #948670",
"T  c #938C72",
"R  c #9A8D74",
"E  c #959175",
"W  c #9E9075",
"Q  c #9D947A",
"!  c #9E997C",
"~  c #A19277",
"^  c #A2957B",
"/  c #A5987E",
"(  c #A69B81",
")  c #AB9C82",
"_  c #A4A182",
"`  c #ABA286",
"'  c #ADA789",
"]  c #AFAA8A",
"[  c #B0A187",
"{  c #B5A68C",
"}  c #B6A98E",
"|  c #B8AA8F",
" . c #B7AE91",
".. c #BAAD91",
"X. c #B6B191",
"o. c #BDB295",
"O. c #BDB996",
"+. c #BFBB99",
"@. c #C0B597",
"#. c #C1B799",
"$. c #C5BC9C",
"%. c #C8BF9F",
"&. c #C5C19E",
"*. c #C8C09F",
"=. c #C7C3A0",
"-. c #CBC4A2",
";. c #CEC9A5",
":. c #D0CBA7",
">. c #D2CEA9",
",. c #D6D3AD",
"<. c None",
/* pixels */
"<.<.<.<.<.<.<.<.<.<.<.<.<.<.<.<.<.<.<.<.<.<.<.<.<.<.<.<.<.<.<.<.<.<.<.<.<.<.<.<.<.<.<.<.<.<.<.<.<.<.<.<.<.<.<.<.<.<.<.<.<.<.<.",
"<.<.<.<.<.<.<.<.<.<.<.<.<.<.<.<.<.<.<.<.<.<.<.<.<.<.<.<.<.<.<.<.<.<.<.<.<.<.<.<.<.<.<.<.<.<.<.<.<.<.<.<.<.<.<.<.<.<.<.<.<.<.<.",
"<.<.<.<.<.<.<.<.<.<.<.<.<.<.<.<.<.<.<.<.<.<.<.<.1 : 1 1 1 : 1 1 1 1 < < 1 1 1 <.<.<.<.<.<.<.<.<.<.<.<.<.<.<.<.<.<.<.<.<.<.<.<.",
"<.<.<.<.<.<.<.<.<.<.<.<.<.<.<.<.<.<.<.<.<.<.<.<.h h h h z z M M z M v z h h h y <.<.<.<.<.<.<.<.<.<.<.<.<.<.<.<.<.<.<.<.<.<.<.",
"<.<.<.<.<.<.<.<.<.<.<.<.<.<.<.<.<.<.<.<.1 1 : t A ( ( ( O.+.+.+.#.$.+. .( / ^ b 3 1 : <.<.<.<.<.<.<.<.<.<.<.<.<.<.<.<.<.<.<.<.",
"<.<.<.<.<.<.<.<.<.<.<.<.<.<.<.<.<.<.<.<.a h M M ' o.+.&.:.,.,.,.,.,.,.:.#.@.+.! M j h y <.<.<.<.<.<.<.<.<.<.<.<.<.<.<.<.<.<.<.",
"<.<.<.<.<.<.<.<.<.<.<.<.<.<.<.<.1 1 , w A ) X.&.-.>.:.>.,.,.,.,.,.,.,.>.:.:.:.-.+.] ( M 2 : 1 <.<.<.<.<.<.<.<.<.<.<.<.<.<.<.<.",
"<.<.<.<.<.<.<.<.<.<.<.<.<.<.<.<.i h z M ) $.:.,.,.>.;.-.-.-.-.-.-.-.-.-.-.:.,.,.,.-.o.E M h h y <.<.<.<.<.<.<.<.<.<.<.<.<.<.<.",
"<.<.<.<.<.<.<.<.<.<.<.<.<.<.<.5 m (  .$.-.:.,.,.,.:.#...............| | ..%.>.,.,.,.:.&.+.' ~ k 1 <.<.<.<.<.<.<.<.<.<.<.<.<.<.",
"<.<.<.<.<.<.<.<.<.<.<.<.<.<.j M ( #.;.,.,.>.;.-.-.%...{ { | o.o.@...| { { o.*.-.*.:.,.,.,.-.o.E v h <.<.<.<.<.<.<.<.<.<.<.<.<.",
"<.<.<.<.<.<.<.<.<.<.<.<.<.5 U +.=.>.>.,.,.>.#.o.....{ { { o.-.:.:.$.| { { | ......*.,.,.,.>.>.*.X.M 1 <.<.<.<.<.<.<.<.<.<.<.<.",
"<.<.<.<.<.<.<.<.<.<.<.<.y z ` ,.,.,.:.-.-.%...{ o.o.o.o.| ..%.-.-.$.| | o.@.@...{ @.-.-.-.:.,.,.:.E i y <.<.<.<.<.<.<.<.<.<.<.",
"<.<.<.<.<.<.<.<.<.<.<.2 n ( +.,.,.>.$. .....{ o.%.:.:.%...{ ......| { @.-.;.:.$.} | o...| *.,.,.>. .T h 1 <.<.<.<.<.<.<.<.<.<.",
"<.<.<.<.<.<.<.<.<.<.1 3 A o.-.,.,.>.+.{ { { o.#.-.-.-.$...{ { { { { { o.-.-.-.%.o...{ { { $.,.,.>.-.} v 1 <.<.<.<.<.<.<.<.<.<.",
"<.<.<.<.<.<.<.<.<.<.1 5 E :.>.,.,.>.o.{ { ..%.-.#.......{ { { { { { { { ......$.;.$.{ { } %.,.,.,.>.&.M 1 <.<.<.<.<.<.<.<.<.<.",
"<.<.<.<.<.<.<.<.<.<.t h _ ,.,.,.:.%.o.{ { | $.%...{ { { { ..o.o.@...| { { { { o.-.@.} { } @.-.>.,.,.-.U a r <.<.<.<.<.<.<.<.<.",
"<.<.<.<.<.<.<.<.<.2 v ^ @.,.,.,.%...| { { | | ..{ { { { { o.%.>.>.%.| { { { { | | | { { { | @.*.,.,.>. .T s 1 <.<.<.<.<.<.<.<.",
"<.<.<.<.<.<.<.<.1 2 Z { *.,.,.>.o.{ { | ..o.| { { | o.o.o.%.>.,.,.-.#.@.@.| } { } | @...{ { { $.,.,.>.#.( h 1 <.<.<.<.<.<.<.<.",
"<.<.<.<.<.<.<.<.1 1 Z } %.,.,.>.#.{ { | %.-.o.{ { ..%.:.:.>.,.,.,.,.:.>.:.%.} { { #.-.$.} { { %.,.,.>.#.( h 1 <.<.<.<.<.<.<.<.",
"<.<.<.<.<.<.<.<.1 3 A o.-.,.,.>.#.{ { ..-.:.o.| ..%.:.,.,.,.,.,.,.,.,.,.,.-.@.| { $.>.%.{ { { *.,.,.,.%.[ z 1 <.<.<.<.<.<.<.<.",
"<.<.<.<.<.<.<.<.: 3 J :.,.,.,.>.#.{ { ..-.:.o...%.:.,.,.,.,.,.,.,.,.,.,.,.>.:.$.} $.>.%.{ { { *.,.,.,.>.O.v < <.<.<.<.<.<.<.<.",
"<.<.<.<.<.<.<.<.1 3 U >.,.,.,.>.#.{ { ..%.:.o...%.;.>.,.,.,.,.,.,.,.,.,.,.>.-.#.{ $.>.%.{ { { %.,.,.,.,.&.n < <.<.<.<.<.<.<.<.",
"<.<.<.<.<.<.<.<.1 3 U ,.,.,.,.>.#.{ { ..-.:.o.{ ..o.:.,.,.,.,.,.,.,.,.,.,.-.@.| { $.>.%.{ { } %.,.,.,.,.&.n 1 <.<.<.<.<.<.<.<.",
"<.<.<.<.<.<.<.<.1 5 U ;.>.,.,.>.#.{ { ..$.%.o.{ | ..%.;.-.:.,.,.,.>.:.-.-.$.{ { { @.*.#.} { { %.,.,.,.>.o.n 3 < <.<.<.<.<.<.<.",
"<.<.<.<.<.<.<.= 2 u J o.-.,.,.>.#.{ { { ....{ { { { ..o...$.:.,.,.-.@.o...| { { { | ..| { } { %.,.,.,.%.[ Z e 1 * <.<.<.<.<.<.",
"<.<.<.<.<.<.<.* 3 d P { %.,.,.,.%.@.{ { { { o.o.| { { { { o.%.;.-.$.| { { { { { o...} { { ..o.-.,.,.>.#.` A i 1 * <.<.<.<.<.<.",
"<.<.<.<.<.<.<.* 0 c R } %.,.,.,.:.-.#.{ { ..%.%.o.{ { { { { ........{ { { { { @.;.#.{ { { #.;.>.,.,.>.#.[ L f 1 * <.<.<.<.<.<.",
"<.<.<.<.<.<.: , u N L Q o.,.,.,.,.:.#.{ { | %.%.#.o.o...| { { { { { { { @.@.o.$.-.#.} { { %.,.,.,.,.>. .R S l 9 > ; <.<.<.<.<.",
"<.<.<.<.<.* 2 r d N c n ' ,.,.,.,.>.#.{ { { ..#.%.;.;.%...{ { { { { { @.-.:.-.%.@.| { { { %.,.,.,.,.;.! b c c s 8 > * <.<.<.<.",
"<.<.<.<.> 1 q s b N x s ( ;.>.,.,.>.%.@.@.o.{ ..%.;.-.$...| o.o.@...{ @.-.;.-.$.{ ..o.o.@.*.,.,.,.;.$.J a l c k p 8 > <.<.<.<.",
"<.<.<.* 6 f k l N N k a Y o.-.,.,.,.:.;.:.%.o.{ ..o.o...{ o.-.;.:.$.| | ......| { #.-.:.;.,.,.,.,.&.{ D s k N N l k u , * <.<.",
"<.<.<.* q S S B c x s y m ( #.,.,.,.,.,.,.:.$.o.o...{ { { o.%.-.-.$.| { { ..@...@.*.,.,.,.,.,.,.>.} T v t k c N C S c 4 * <.<.",
"<.<.<.* p ( Y V l s e 5 a M ] ,.,.,.,.,.,.,.;.;.;.*...} { } ..@...| } } { @.*.:.;.>.,.,.,.,.,.,.;.! z t 5 t j c D W J 8 & <.<.",
"<.<.<.& i S Z x g i 0 1 e a E O.%.;.,.,.,.,.,.,.,.:.$.o.o.@.@...@.....@.o.*.,.,.,.,.,.,.,.:.*.&.X.G i 5 3 0 a j c F B 4 & <.<.",
"<.<.<.<.; 7 r s s i 0 1 e a z D / +.-.,.,.,.,.,.,.,.;.;.:.*.;.;.:.*.:.:.*.,.,.,.,.,.,.,.,.&...! M z t 0 1 e a d i r 2 * <.<.<.",
"<.<.<.<.o % > 0 e r 0 5 t s s j H / ] +.&.-.;.;.>.,.,.,.,.,.,.,.,.,.,.,.,.,.,.>.*.:.:.&.O.` Q V d s s q 5 0 e e 5 ; $ <.<.<.<.",
"<.<.<.<.<.X * : 1 3 0 t s c c c b v n G _ o.o.+.:.,.,.,.,.,.,.,.,.,.,.,.,.,.,.*.o.o.X.! M n v c N c l s r 0 2 > ; $ <.<.<.<.<.",
"<.<.<.<.<.<.+ * > 8 t d v N B N k s a j H ^ Q / } O.O.&.*.;.:.:.*.:.;.*.&.O.O.' ^ ^ Q V a a s c B B N k s r 3 > & o <.<.<.<.<.",
"<.<.<.<.<.<.@ * 7 f l c N B B B c c s a k v v b M G P / } o.o.@.@.@.@.[ W J D n v v v d a g c b B B B N l k p , & o <.<.<.<.<.",
"<.<.<.<.<.X > 7 s B B V B B V N l g s a s d d d s d k C ~ / / / / / ~ L N g a a s d d s a d g c B B B B B B l u 3 * <.<.<.<.<.",
"<.<.<.<.X & u L S B B B B B V N a 8 t d g c c c c l d k C K K K K A b k d a a d l c c j a t 8 d B B B B V B C K A 4 # <.<.<.<.",
"<.<.<.<.O * p ~ R K S B B B l l 0 2 q g c V B B c c d d c B B V B c a a a a a g N B N l s e 1 u c N B B V S L ~ Y w & o <.<.<.",
"<.<.<.<.O & u S W / L B B N l s 0 2 a c c B B B B c d d c V B B B l a a a a a d N B V N l t 1 r d l B N C R ^ I N 4 % X <.<.<.",
"<.<.<.<.o & 6 f S ~ K B N x s r 0 7 s c B V B B V c d d c c B B B l a a a a d v B B B N l u 3 0 t j c N C Y R B u , $ <.<.<.<.",
"<.<.<.<.<.X = 1 t b N N k s r 5 q t a d c B B B B B c l d k b B B c s a a s l N B B N l d i t 0 5 t j l N b k q > % <.<.<.<.<.",
"<.<.<.<.<.<.o % 1 r i f u q 5 1 q s d d l c B B B B B c s d c B c k a a a d N N B N c g s s a 0 1 0 t s f t 8 ; $ X <.<.<.<.<.",
"<.<.<.<.<.<.<.o * > < 1 > : < 1 a l c c g g c B B B B c s d c c d a a a a j N B B c d k l c k t 1 2 5 1 1 > : % <.<.<.<.<.<.<.",
"<.<.<.<.<.<.<.<.o % % % % = 1 q s B B B g g c B N c g d a s l j a a a t t s c N B l d l B B N p 7 1 > = % % % X <.<.<.<.<.<.<.",
"<.<.<.<.<.<.<.<.<.X X O $ = 9 f N B B B N N N N k a q q i a s s a a a e 5 e s z B N N N B B V N p 6 * $ X o   <.<.<.<.<.<.<.<.",
"<.<.<.<.<.<.<.<.<.<.<.<.+ - p S S S C B B B B N s t 3 1 0 e q t t q q 5 < 5 a g B B N V B S S S C 9 & O <.<.<.<.<.<.<.<.<.<.<.",
"<.<.<.<.<.<.<.<.<.<.<.<.# ; l / / ^ S V B B B N d r : ; : : < : : : < : = 2 t g N B B B B I / / ~ u & O <.<.<.<.<.<.<.<.<.<.<.",
"<.<.<.<.<.<.<.<.<.<.<.<.# ; x ) [ [ ~ S C N l p t 5 ; % % % % % % % % % % < 0 a f N B S S ^ { [ ~ p & O <.<.<.<.<.<.<.<.<.<.<.",
"<.<.<.<.<.<.<.<.<.<.<.<.+ - p L ( { ) ~ S l 9 , > - $ o X o o o o o o o X * : < , u B S ( ) { ~ S r & o <.<.<.<.<.<.<.<.<.<.<.",
"<.<.<.<.<.<.<.<.<.<.<.<.+ * 9 k S R R Y B p , $ % $ <.<.<.<.<.<.<.<.<.<.<.o % % % 6 f S R R R Z p 4 & o <.<.<.<.<.<.<.<.<.<.<.",
"<.<.<.<.<.<.<.<.<.<.<.<.<.+ : 2 7 w 9 9 6 , * o o <.<.<.<.<.<.<.<.<.<.<.<.<.o X X - , 4 w w 9 7 , - o <.<.<.<.<.<.<.<.<.<.<.<.",
"<.<.<.<.<.<.<.<.<.<.<.<.<.<.+ % & & % % $ $ . <.<.<.<.<.<.<.<.<.<.<.<.<.<.<.<.<.<.O & % $ & % % $ O <.<.<.<.<.<.<.<.<.<.<.<.<.",
"<.<.<.<.<.<.<.<.<.<.<.<.<.<.<.o o o X O o . <.<.<.<.<.<.<.<.<.<.<.<.<.<.<.<.<.<.<.<.o o o o X o X <.<.<.<.<.<.<.<.<.<.<.<.<.<.",
"<.<.<.<.<.<.<.<.<.<.<.<.<.<.<.<.<.<.<.<.<.<.<.<.<.<.<.<.<.<.<.<.<.<.<.<.<.<.<.<.<.<.<.<.<.<.<.<.<.<.<.<.<.<.<.<.<.<.<.<.<.<.<.",
"<.<.<.<.<.<.<.<.<.<.<.<.<.<.<.<.<.<.<.<.<.<.<.<.<.<.<.<.<.<.<.<.<.<.<.<.<.<.<.<.<.<.<.<.<.<.<.<.<.<.<.<.<.<.<.<.<.<.<.<.<.<.<.",
"<.<.<.<.<.<.<.<.<.<.<.<.<.<.<.<.<.<.<.<.<.<.<.<.<.<.<.<.<.<.<.<.<.<.<.<.<.<.<.<.<.<.<.<.<.<.<.<.<.<.<.<.<.<.<.<.<.<.<.<.<.<.<.",
"<.<.<.<.<.<.<.<.<.<.<.<.<.<.<.<.<.<.<.<.<.<.<.<.<.<.<.<.<.<.<.<.<.<.<.<.<.<.<.<.<.<.<.<.<.<.<.<.<.<.<.<.<.<.<.<.<.<.<.<.<.<.<.",
"<.<.<.<.<.<.<.<.<.<.<.<.<.<.<.<.<.<.<.<.<.<.<.<.<.<.<.<.<.<.<.<.<.<.<.<.<.<.<.<.<.<.<.<.<.<.<.<.<.<.<.<.<.<.<.<.<.<.<.<.<.<.<.",
"<.<.<.<.<.<.<.<.<.<.<.<.<.<.<.<.<.<.<.<.<.<.<.<.<.<.<.<.<.<.<.<.<.<.<.<.<.<.<.<.<.<.<.<.<.<.<.<.<.<.<.<.<.<.<.<.<.<.<.<.<.<.<."
};
