/* XPM */
static char *result[] = {
/* columns rows colors chars-per-pixel */
"64 64 200 2 ",
"   c #020102",
".  c #070609",
"X  c #09070B",
"o  c #0B090D",
"O  c #0D0C12",
"+  c #110E15",
"@  c #140E1A",
"#  c #15121B",
"$  c #18141D",
"%  c #131015",
"&  c #1C1623",
"*  c #1B1925",
"=  c #1F1629",
"-  c #1E1D29",
";  c #211A27",
":  c #21172B",
">  c #221B2B",
",  c #331E2B",
"<  c #261D31",
"1  c #291F33",
"2  c #2C1F39",
"3  c #22212E",
"4  c #3C242B",
"5  c #262534",
"6  c #2B2235",
"7  c #282837",
"8  c #272738",
"9  c #2D2539",
"0  c #272838",
"q  c #2A293A",
"w  c #31253C",
"e  c #342A3D",
"r  c #372A37",
"t  c #48292A",
"y  c #2F2C40",
"u  c #332543",
"i  c #332C42",
"p  c #392D45",
"a  c #362E49",
"s  c #3B2D4B",
"d  c #353245",
"f  c #3D3344",
"g  c #373348",
"h  c #3D334C",
"j  c #3E394D",
"k  c #3D2B50",
"l  c #3D3252",
"z  c #472D4D",
"x  c #41354C",
"c  c #48354D",
"v  c #412F56",
"b  c #443553",
"n  c #433B54",
"m  c #453359",
"M  c #49355E",
"N  c #473B5A",
"B  c #4B3B5C",
"V  c #4A3D53",
"C  c #5A3653",
"Z  c #6D394C",
"A  c #4C3663",
"S  c #4E3C62",
"D  c #503C64",
"F  c #523A69",
"G  c #4E4057",
"H  c #4B425B",
"J  c #474158",
"K  c #52445D",
"L  c #7C5554",
"P  c #4F4461",
"I  c #524563",
"U  c #564B65",
"Y  c #594B65",
"T  c #56426A",
"R  c #5A446D",
"E  c #5B4B6B",
"W  c #5E526E",
"Q  c #574070",
"!  c #5B4571",
"~  c #5E4973",
"^  c #5F4878",
"/  c #674A6C",
"(  c #7A4665",
")  c #7D506E",
"_  c #614570",
"`  c #614B76",
"'  c #644D7B",
"]  c #6A4E7B",
"[  c #635472",
"{  c #6B5876",
"}  c #66517C",
"|  c #6A537E",
" . c #6D5B7B",
".. c #685477",
"X. c #7B537B",
"o. c #715D7F",
"O. c #71517E",
"+. c #71627E",
"@. c #843E3F",
"#. c #88524F",
"$. c #8D4F5D",
"%. c #825959",
"&. c #895353",
"*. c #945C5E",
"=. c #924445",
"-. c #A9545A",
";. c #B45A58",
":. c #9F596C",
">. c #985665",
",. c #8A5576",
"<. c #825579",
"1. c #845877",
"2. c #975975",
"3. c #86526D",
"4. c #AB5A6D",
"5. c #AA5361",
"6. c #B45B6A",
"7. c #946569",
"8. c #86617E",
"9. c #9A6B74",
"0. c #BA616A",
"q. c #A8757D",
"w. c #B2767B",
"e. c #B76674",
"r. c #CD5E5F",
"t. c #C5595C",
"y. c #CC5F64",
"u. c #D15F60",
"i. c #C4676C",
"p. c #D46263",
"a. c #D7726F",
"s. c #C46A72",
"d. c #CD7F7D",
"f. c #D77574",
"g. c #D77779",
"h. c #D5847E",
"j. c #675080",
"k. c #6A5281",
"l. c #6E5A82",
"z. c #725B85",
"x. c #7C5D84",
"c. c #755E8A",
"v. c #745986",
"b. c #746385",
"n. c #766984",
"m. c #776389",
"M. c #7A638C",
"N. c #7C6A8B",
"B. c #796887",
"V. c #7E738B",
"C. c #7E6691",
"Z. c #7E6890",
"A. c #845E85",
"S. c #846186",
"D. c #866889",
"F. c #956C8A",
"G. c #976986",
"H. c #8C7186",
"J. c #82758B",
"K. c #847B8D",
"L. c #857386",
"P. c #9B7287",
"I. c #826B94",
"U. c #866E98",
"Y. c #877198",
"T. c #8C749C",
"R. c #877795",
"E. c #AC6E83",
"W. c #A97787",
"Q. c #A5758A",
"!. c #8F77A0",
"~. c #8F78A0",
"^. c #9078A0",
"/. c #C37D88",
"(. c #8C8593",
"). c #8E8994",
"_. c #8C8099",
"`. c #918A97",
"'. c #958C9C",
"]. c #99929F",
"[. c #9D9C9D",
"{. c #96919A",
"}. c #89838E",
"|. c #A58F91",
" X c #BE8492",
".X c #A29C9F",
"XX c #A49397",
"oX c #9B94A2",
"OX c #9E9BA1",
"+X c #A19BA3",
"@X c #A3A3A4",
"#X c #ABABAC",
"$X c #A8A4AB",
"%X c #AFAEB0",
"&X c #B0AFB1",
"*X c #B3B3B3",
"=X c #C98789",
"-X c #D68787",
";X c #C58994",
":X c None",
/* pixels */
":X:X:X:X:X:X:X:X:X:X:X:X:X:X:X:X:X:X:X:X:X:X:X:X:X:X:X:X:X:X:X:X:X:X:X:X:X:X:X:X:X:X:X:X:X:X:X:X:X:X:X:X:X:X:X:X:X:X:X:X:X:X:X:X",
":X:X:X:X:X:X:X:X:X:X:X:X:X:X:X:X:X:X:X:X:X:X:X:X:X:X:X:X:X:X:X:X:X:X:X:X:X:X:X:X:X:X:X:X:X:X:X:X:X:X:X:X:X:X:X:X:X:X:X:X:X:X:X:X",
":X:X:X:X:X:X:X:X:X:X:X:X:X:X:X:X:X:X:X:X:X:X:X:X:X:X:X:X:X:X:X:X:X:X:X:X:X:X:X:X:X:X:X:X:X:X:X:X:X:X:X:X:X:X:X:X:X:X:X:X:X:X:X:X",
":X:X:X:X:X:X:X:X:X:X:X:X:X:X:X:X:X:X:X:X:X:X:X:X:X:X:X:X:X:X:X:X:X:X:X:X:X:X:X:X:X:X:X:X:X:X:X:X:X:X:X:X:X:X:X:X:X:X:X:X:X:X:X:X",
":X:X:X:X:X:X:X:X:X:X:X:X:X:X:X:X:X:X:X:X:X:X:X:X:X:X:X:X:X:X:X:X:X:X:X:X:X:X:X:X:X:X:X:X:X:X:X:X:X:X:X:X:X:X:X:X:X:X:X:X:X:X:X:X",
":X:X:X:X:X:X:X:X:X:X:X:X:X:X:X:X:X:X:X:X:X:X:X:X:X:X:X:X:X:X:X:X:X:X:X:X:X:X:X:X:X:X:X:X:X:X:X:X:X:X:X:X:X:X:X:X:X:X:X:X:X:X:X:X",
":X:X:X:X:X:X:X:X:X:X:X:X:X:X:X:X:X:X:X:X:X:X:X:X:X:X:X:X:X:X:X:X:X:X:X:X:X:X:X:X:X:X:X:X:X:X:X:X:X:X:X:X:X:X:X:X:X:X:X:X:X:X:X:X",
":X:X:X:X:X:X:X:X:Xq q :X:X:X:X:X:X:X:X:X:X:X:X:X:X:X:X:X:X:X:Xq q :X:X:X:X:X:X:X:X:X:X:X:X:X:X:X:X:X:X:X:X:Xq q :X:X:X:X:X:X:X:X",
":X:X:X:X:X:X:X:Xq 8 q q 0 :X:X:X:X:X:X:X:X:X:X:X:X:X:X:X:Xq 0 0 q q :X:X:X:X:X:X:X:X:X:X:X:X:X:X:X:X:X:X:X7 q q q 8 :X:X:X:X:X:X",
":X:X:X:X:X:X:X:X- 3 e x j q :X:X:X:X:X:X:X:X:X:X:X:X:X:X0 0 q d j n j :X:X:X:X:X:X:X:X:X:X:X:X:X:X:X:X:Xe j j e 3 - :X:X:X:X:X:X",
":X:X:X:X:X:X:X:XO * x W K q X       :X:X:X:X:X:Xq 0 0 0 0 q e J [ W J i 0 0 8 8 q :X:X:X:X:X:X:X      o e W Y e $ O :X:X:X:X:X:X",
":X:X:X:X:X:X:X:X  $ G +.{ r O . . . :X:X:X:X:X:Xq q q e q 0 d U N.B.I d q q y q q q :X:X:X:X:X. . . . % f +.o.x %   :X:X:X:X:X:X",
":X:X:X:X:X:X:X:X  # x  . .K f e 9 6 $ :X:X:X:X9 j N H H J d d W N.N.[ H N P P H N h 5 :X:X:X:X; 3 w r x Y  ...p O   :X:X:X:X:X:X",
":X:X:X:X:X:X:X:X  @ p ` z.+.o...R b 6 X     X w H } l.b.[ j g U Z.I.l.` } b.B.| ~ N 3 .     O w B E ..o.o.z.R e o   :X:X:X:X:X:X",
":X:X:X:X:X:X:X:X  + w D ..m.I.I.c.~ p $ + # $ e B ` b.Z.l.P V [ I.Y.C.c.M.Y.Y.m.~ b w $ # + & x ] c.I.I.z.` B 6 o   :X:X:X:X:X:X",
":X:X:X:X:X:X:X:X:XO ; 6 b ` c.M.C.z.R x h V G x e a E c.b... .b.Y.T.I.I.U.T.Z.E p i c G c h b _ c.C.C.z.R x 6 & :X:X:X:X:X:X:X:X",
":X:X:X:X:X:X:X:X:X:Xo O > B k.M.U.I.l.' ] m.m.G 3 ; V ] c.M.U.T.T.^.^.T.T.^.N.G ; 6 Y N.z.] ' c.I.I.c.} b ; o X :X:X:X:X:X:X:X:X",
":X:X:X:X:X:X:X:X:X:X    & b } c.C.C.C.c.C.U.Y.[ x e Y l.I.T.^.^.^.^.^.^.^.^.I./ r c { T.I.C.c.C.I.C.v.~ s $   :X:X:X:X:X:X:X:X:X",
":X:X:X:X:X:X:X:X:X:X    & b ' k.c.c.C.I.U.T.T.N.{ { m.I.U.T.^.^.^.^.^.^.^.^.R.B. .+.I.T.T.Y.I.M.c.l.k.` s #   :X:X:X:X:X:X:X:X:X",
":X:X:X:X:X:X:X:X:X:X:X  & z R ` j.l.C.!.!.!.!.!.T.T.T.T.T.^.^.^.^.^.^.^.^.^.^.^.T.R.T.^.^.!.U.C.v.] ` T p #   :X:X:X:X:X:X:X:X:X",
":X:X:X:X:X:X:X:X:X:X:X:X$ 6 a B _ v.I.T.^.^.^.^.^.^.^.^.^.^.^.^.^.^.^.^.^.^.^.^.^.^.^.^.^.^.T.C.j.! M p 1 @ :X:X:X:X:X:X:X:X:X:X",
":X:X:X:X:X:X:X:X:X:X:X:X:X+ & u T k.M.T.^.^.^.^.^.^.!.^.^.^.^.^.^.^.^.^.^.^.^.^.^.^.^.^.!.!.U.M.k.S 9 # + :X:X:X:X:X:X:X:X:X:X:X",
":X:X:X:X:X:X:X:X:X:X:X:X:Xo O 5 b R l.I.T.T.^.^.^.^.^.^.^.^.^.^.^.^.^.^.^.^.^.^.^.^.^.^.T.T.I. .R h > O o :X:X:X:X:X:X:X:X:X:X:X",
":X:X:X:X:X:X:X:X:X:X:X:X:X& * - < p I v.I.Y.^.^.^.^.^.^.^.^.^.^.^.^.^.^.^.^.^.^.^.^.^.^.U.C.l.B y > - & * :X:X:X:X:X:X:X:X:X:X:X",
":X:X:X:X:X:X:X:X:X:X:X:X:X5 5 * + & b ` c.C.!.!.!.~.~.^.^.^.^.^.^.^.^.^.^.^.^.^.^.!.!.!.C.c.~ p # % * 5 8 :X:X:X:X:X:X:X:X:X:X:X",
":X:X:X:X:X:X:X:X:X:X:X:X0 0 5 - # * h ` v.C.I.U.!.!.^.^.^.^.^.^.^.^.^.^.^.^.^.^.!.!.U.I.c.v.~ g * # - 8 0 :X:X:X:X:X:X:X:X:X:X:X",
":X:X:X:X:X:X:X:X:X:X:X7 0 0 0 3 - q N ' k.v.c.C.!.^.^.^.^.^.^.^.^.^.^.^.^.^.^.^.!.U.C.c.k.k.^ l 5 3 8 8 0 :X:X:X:X:X:X:X:X:X:X:X",
":X:X:X:X:X:X:X:X:X:Xy q y y y y y h D ` j.j.k.M.U.^.^.^.^.^.^.^.^.^.^.^.^.^.^.^.!.U.c.k.k.j.^ S d y y y i :X:X:X:X:X:X:X:X:X:X:X",
":X:X:X:X:X:X:X:X:Xy a s l m H S N P ! ] j.j.k.C.Y.!.^.^.^.^.!.^.^.^.^.^.^.^.^.^.^.U.c.k.j.j.^ ! S J N N j d :X:X:X:X:X:X:X:X:X:X",
":X:X:X:X:X:X:X:X8 y h M F ! ^ ^ ^ ^ j.j.j.j.k.C.T.^.^.!.^.^.!.!.^.^.^.^.^.^.^.^.^.U.c.k.j.j.j.j.^ ^ ^ ~ S d 0 :X:X:X:X:X:X:X:X:X",
":X:X:X:X:X:X:Xj n N I ~ } k.l.k.k.j.k.j.k.<.<.A.I.U.U.U.T.!.!.!.^.^.^.^.T.U.Y.I.U.D.A.<.X.k.k.j.j.k.l.l.~ H n j :X:X:X:X:X:X:X:X",
":X:X:X:X:X:Xi J W  .l.m.M.C.C.M.l.j.j.j.X.2.4.2.A.c.c.c.C.T.!.!.^.^.^.^.U.I.c.m.c.A.2.4.2.X.j.j.j.k.M.C.m.+.[ G d :X:X:X:X:X:X:X",
":X:X:X:X:X0 i H m.Y.T.T.!.!.!.C.v.j.j.j.,.6.p.4.<.k.k.k.c.U.!.^.T.^.!.!.C.c.j.j.k.,.4.y.4.<.j.j.j.v.I.T.T.T.N.Y j q :X:X:X:X:X:X",
":X:X:X:X:X& - h ` c.C.C.C.C.C.c.k.j.j.k.,.4.p.s.E.F.A.k.k.M.C.C.C.I.C.C.M.v.v.A.Q.E.s.u.4.<.j.j.k.k.c.I.U.T.I.o.U J j :X:X:X:X:X",
":X:X:X:X:Xo + 1 N _ k.l.v.v.v.k.k.k.j.k.,.6.p.g.-X;XF.v.k.v.v.v.v.v.v.v.v.j.v.F.;X-Xf.u.4.<.j.j.j.j.v.v.I.U.T.I.B.[ N q :X:X:X:X",
":X:X:X:X:X  . & p m A T ! Q R ` ] j.} k.,.6.p.f.-X;XQ.A.v.k.j.j.j.j.j.j.k.x.D.W.=X-Xa.u.4.<.j.k.j.j._ _ | I.T.U.U. .x q 5 :X:X:X",
":X:X:X:X:X:X:X@ : < 2 9 q w i m ! k.j.j.,.6.p.-.#.L 9.Q.P.A.j.j.j.j.j.k.A.Q.Q.9.#.#.;.r.4.<.j.j.j.Q b p S { M.I.m.E e $ % :X:X:X",
":X:X:X:X:X:X:X:Xo X o o o o # e T j.k.k.1.6.t.@.t t 7.=X;XD.j.] j.j.j.k.F.;X=X%.t t =.y.4.X.l.j.j.D 2 $ e T k.k.] B 3 X . :X:X:X",
":X:X:X:X:X:X:X:X        . . # e T | l.m.1.:.-.Z , t 7.h./.A.] ' ^ ^ j.j.G.=Xd.&., 4 L -.:.A.b.l.j.B : o & s M B N p & . :X:X:X:X",
":X:X:X:X:X:X:X:X:X:X:X:XO & > g T l.N.K.D.3.( C z C *.s.e.3.Q F Q Q F _ 3.s.i.$.z z C ( X.L.J.B.k.B > X + $ ; ; : & # :X:X:X:X:X",
":X:X:X:X:X:X:X:X:X:X:X:X:X5 q N ! l.V.).V. .E R R / 4.0.4.) R R _ R R _ 3.0.0.>./ R R _ +.}.(.V.| M >       .   .   :X:X:X:X:X:X",
":X:X:X:X:X:X:X:X:X:X:X:X:X8 q m ! l.N.V.V.n.+.n.N.L.q.w.q.H.V.n.o.v.n.D.H.w.w.P.L.B.+.+.n.V.V.l.` b : .           :X:X:X:X:X:X:X",
":X:X:X:X:X:X:X:X:X:X:X:X:X8 q n ! k.l.l.N.J.}.{.OXOXXX|.|..X+X{.).).].+X.XXX|..X+XOX`.}.J.B.l.` F k &     :X:X:X:X:X:X:X:X:X:X:X",
":X:X:X:X:X:X:X:X:X:X:X:X:X7 q l B R ~ } b.J.).OX%X*X@X[.@X#X*X#X[.[.#X*X#X[.[.@X*X#X[.`.V.z.` F m u &   :X:X:X:X:X:X:X:X:X:X:X:X",
":X:X:X:X:X:X:X:X:X:X:X:X:X:X:X9 6 p A ] l.m.V.oX$X*X$X[.@X&X*X$X[.@X#X*X%X@X[.$X*X$X'.V.m.l.^ b 1 & @ :X:X:X:X:X:X:X:X:X:X:X:X:X",
":X:X:X:X:X:X:X:X:X:X:X:X:X:X:X:XO & g Q } l.b.R.$X%X@X].[.$X&X$X[.[.#X&X$X[.OX@X&X+XR.l.k.j.R p @ o :X:X:X:X:X:X:X:X:X:X:X:X:X:X",
":X:X:X:X:X:X:X:X:X:X:X:X:X:X:X:XO # 9 b S ^ k.V.'.oX`.(.`.].oX'.(.).'.oX{.(.(.).'.R.m.` ^ ' F i # O :X:X:X:X:X:X:X:X:X:X:X:X:X:X",
":X:X:X:X:X:X:X:X:X:X:X:X:X:X:X:X- * - * u P j.c.Z.N.N.B.N.N.N.N.B.B.N.Z.N.B.m.b.z...~ Q F Q D s 5 - :X:X:X:X:X:X:X:X:X:X:X:X:X:X",
":X:X:X:X:X:X:X:X:X:X:X:X:X:X:X:X8 < * + < M j.j.j.k.j.k.k.k.l.k.k.k.l.k.k.l.} ! F F A F F F A a 5 3 :X:X:X:X:X:X:X:X:X:X:X:X:X:X",
":X:X:X:X:X:X:X:X:X:X:X:X:X:X:X:X8 5 < < u A ! ! Q ^ ' j.j.j.j.j.j.j.j.j.j.j.^ T m v A F F A M u * & :X:X:X:X:X:X:X:X:X:X:X:X:X:X",
":X:X:X:X:X:X:X:X:X:X:X:X:X:X:X:X8 y a k M A F F F Q ^ j.j.k.] | j.j.k.j.j.k.~ S a a v F A F M 2 O . :X:X:X:X:X:X:X:X:X:X:X:X:X:X",
":X:X:X:X:X:X:X:X:X:X:X:X:X:X:X:X- 5 k A F F F A A M A S S S S S D D S S S S B p 5 5 u k k k u : X   :X:X:X:X:X:X:X:X:X:X:X:X:X:X",
":X:X:X:X:X:X:X:X:X:X:X:X:X:X:X:XO = u A F F A M h u 9 6 5 1 1 1 1 1 1 1 1 1 > & @ # & = : = & $ :X:X:X:X:X:X:X:X:X:X:X:X:X:X:X:X",
":X:X:X:X:X:X:X:X:X:X:X:X:X:X:X:X  O 9 M A A A k y 5 # . .   .     .   . .     .               :X:X:X:X:X:X:X:X:X:X:X:X:X:X:X:X:X",
":X:X:X:X:X:X:X:X:X:X:X:X:X:X:X:X  O = u u u u < - & O .                                       :X:X:X:X:X:X:X:X:X:X:X:X:X:X:X:X:X",
":X:X:X:X:X:X:X:X:X:X:X:X:X:X:X:X:X:X+ @ @ @ @ O O X . :X:X:X:X:X:X:X:X:X:X:X:X:X:X:X:X:X:X:X:X:X:X:X:X:X:X:X:X:X:X:X:X:X:X:X:X:X",
":X:X:X:X:X:X:X:X:X:X:X:X:X:X:X:X:X:X:X              :X:X:X:X:X:X:X:X:X:X:X:X:X:X:X:X:X:X:X:X:X:X:X:X:X:X:X:X:X:X:X:X:X:X:X:X:X:X",
":X:X:X:X:X:X:X:X:X:X:X:X:X:X:X:X:X:X:X:X:X:X:X:X:X:X:X:X:X:X:X:X:X:X:X:X:X:X:X:X:X:X:X:X:X:X:X:X:X:X:X:X:X:X:X:X:X:X:X:X:X:X:X:X",
":X:X:X:X:X:X:X:X:X:X:X:X:X:X:X:X:X:X:X:X:X:X:X:X:X:X:X:X:X:X:X:X:X:X:X:X:X:X:X:X:X:X:X:X:X:X:X:X:X:X:X:X:X:X:X:X:X:X:X:X:X:X:X:X",
":X:X:X:X:X:X:X:X:X:X:X:X:X:X:X:X:X:X:X:X:X:X:X:X:X:X:X:X:X:X:X:X:X:X:X:X:X:X:X:X:X:X:X:X:X:X:X:X:X:X:X:X:X:X:X:X:X:X:X:X:X:X:X:X",
":X:X:X:X:X:X:X:X:X:X:X:X:X:X:X:X:X:X:X:X:X:X:X:X:X:X:X:X:X:X:X:X:X:X:X:X:X:X:X:X:X:X:X:X:X:X:X:X:X:X:X:X:X:X:X:X:X:X:X:X:X:X:X:X",
":X:X:X:X:X:X:X:X:X:X:X:X:X:X:X:X:X:X:X:X:X:X:X:X:X:X:X:X:X:X:X:X:X:X:X:X:X:X:X:X:X:X:X:X:X:X:X:X:X:X:X:X:X:X:X:X:X:X:X:X:X:X:X:X",
":X:X:X:X:X:X:X:X:X:X:X:X:X:X:X:X:X:X:X:X:X:X:X:X:X:X:X:X:X:X:X:X:X:X:X:X:X:X:X:X:X:X:X:X:X:X:X:X:X:X:X:X:X:X:X:X:X:X:X:X:X:X:X:X",
":X:X:X:X:X:X:X:X:X:X:X:X:X:X:X:X:X:X:X:X:X:X:X:X:X:X:X:X:X:X:X:X:X:X:X:X:X:X:X:X:X:X:X:X:X:X:X:X:X:X:X:X:X:X:X:X:X:X:X:X:X:X:X:X"
};
