/* XPM */
static char *result[] = {
/* columns rows colors chars-per-pixel */
"64 64 191 2 ",
"   c #010101",
".  c #070509",
"X  c #09070B",
"o  c #0B0A0E",
"O  c #07080A",
"+  c #0E0B12",
"@  c #110E15",
"#  c #140E1A",
"$  c #111017",
"%  c #14121B",
"&  c #18131D",
"*  c #1B1522",
"=  c #1B1A25",
"-  c #1E1D2A",
";  c #171620",
":  c #21172B",
">  c #231B2C",
",  c #2B1F2B",
"<  c #381D27",
"1  c #251C31",
"2  c #291F33",
"3  c #2C1F38",
"4  c #22222F",
"5  c #252433",
"6  c #2B2334",
"7  c #282837",
"8  c #272738",
"9  c #2D243A",
"0  c #2A293A",
"q  c #272837",
"w  c #31253C",
"e  c #332B3D",
"r  c #342B3A",
"t  c #37242B",
"y  c #442F2E",
"u  c #542E2E",
"i  c #4B3333",
"p  c #342544",
"a  c #352B44",
"s  c #392D45",
"d  c #382749",
"f  c #3B2E4B",
"g  c #372B49",
"h  c #353145",
"j  c #3B3144",
"k  c #3C334B",
"l  c #3D394D",
"z  c #373149",
"x  c #3F3452",
"c  c #462C47",
"v  c #41344C",
"b  c #45394E",
"n  c #4F3249",
"m  c #412E54",
"M  c #443453",
"N  c #423A55",
"B  c #46345A",
"V  c #49345E",
"C  c #463A59",
"Z  c #4B3B5C",
"A  c #483956",
"S  c #763943",
"D  c #633956",
"F  c #4C3662",
"G  c #4E3B64",
"H  c #513D64",
"J  c #523A6A",
"K  c #5A3F68",
"L  c #4B425A",
"P  c #464056",
"I  c #53445D",
"U  c #534265",
"Y  c #554A64",
"T  c #56426B",
"R  c #5A456D",
"E  c #5B4C6B",
"W  c #5A4D67",
"Q  c #5D516D",
"!  c #5B4472",
"~  c #5D4973",
"^  c #5F4778",
"/  c #634368",
"(  c #7E4E6D",
")  c #62526D",
"_  c #614C75",
"`  c #644D7B",
"'  c #664B79",
"]  c #645473",
"[  c #685674",
"{  c #66517B",
"}  c #6A537E",
"|  c #6D5B7D",
" . c #7B547C",
".. c #715D7D",
"X. c #76527C",
"o. c #70607F",
"O. c #8E4344",
"+. c #8C5D5D",
"@. c #8B545A",
"#. c #97595A",
"$. c #954647",
"%. c #AD525D",
"&. c #B75E5C",
"*. c #824A67",
"=. c #8C5F60",
"-. c #9A5467",
";. c #885577",
":. c #845579",
">. c #855A77",
",. c #935978",
"<. c #A25A6E",
"1. c #AD5A6C",
"2. c #B25C6B",
"3. c #B35560",
"4. c #A55A71",
"5. c #906263",
"6. c #8D6A7F",
"7. c #9B6C77",
"8. c #A56F7A",
"9. c #BE6571",
"0. c #BC6B77",
"q. c #AD7078",
"w. c #B67176",
"e. c #CA5C5E",
"r. c #CA5E65",
"t. c #D15F61",
"y. c #C36369",
"u. c #D46263",
"i. c #C66E75",
"p. c #CB7072",
"a. c #D87475",
"s. c #675080",
"d. c #6A5281",
"f. c #6E5A83",
"g. c #715682",
"h. c #715A85",
"j. c #7E5D85",
"k. c #745C8A",
"l. c #746284",
"z. c #77628A",
"x. c #79628D",
"c. c #7C6B8B",
"v. c #776683",
"b. c #7F738C",
"n. c #7D6591",
"m. c #7F6E90",
"M. c #825F86",
"N. c #836086",
"B. c #846B83",
"V. c #8A6688",
"C. c #936A8A",
"Z. c #976B88",
"A. c #81768C",
"S. c #847A8C",
"D. c #826B95",
"F. c #866E98",
"G. c #847294",
"H. c #877099",
"J. c #8B749C",
"K. c #8A7D97",
"L. c #A56A81",
"P. c #A57589",
"I. c #8F77A0",
"U. c #9078A0",
"Y. c #86808D",
"T. c #8B8591",
"R. c #8F8994",
"E. c #8D8199",
"W. c #908A96",
"Q. c #938C9B",
"!. c #97909D",
"~. c #99929F",
"^. c #9D9C9D",
"/. c #A78C8E",
"(. c #A48E92",
"). c #BC8493",
"_. c #A1959B",
"`. c #958BA0",
"'. c #9B95A1",
"]. c #9F9BA3",
"[. c #A09AA5",
"{. c #A4A3A4",
"}. c #A6A3AA",
"|. c #ACABAC",
" X c #B0AFB0",
".X c #B2B2B2",
"XX c #CD838B",
"oX c #C8898C",
"OX c #D78987",
"+X c #C08593",
"@X c None",
/* pixels */
"@X@X@X@X@X@X@X@X@X@X@X@X@X@X@X@X@X@X@X@X@X@X@X@X@X@X@X@X@X@X@X@X@X@X@X@X@X@X@X@X@X@X@X@X@X@X@X@X@X@X@X@X@X@X@X@X@X@X@X@X@X@X@X@X",
"@X@X@X@X@X@X@X@X@X@X@X@X@X@X@X@X@X@X@X@X@X@X@X@X@X@X@X@X@X@X@X@X@X@X@X@X@X@X@X@X@X@X@X@X@X@X@X@X@X@X@X@X@X@X@X@X@X@X@X@X@X@X@X@X",
"@X@X@X@X@X@X@X@X@X@X@X@X@X@X@X@X@X@X@X@X@X@X@X@X@X@X@X@X@X@X@X@X@X@X@X@X@X@X@X@X@X@X@X@X@X@X@X@X@X@X@X@X@X@X@X@X@X@X@X@X@X@X@X@X",
"@X@X@X@X@X@X@X@X@X@X@X@X@X@X@X@X@X@X@X@X@X@X@X@X@X@X@X@X@X@X@X@X@X@X@X@X@X@X@X@X@X@X@X@X@X@X@X@X@X@X@X@X@X@X@X@X@X@X@X@X@X@X@X@X",
"@X@X@X@X@X@X@X@X@X@X@X@X@X@X@X@X@X@X@X@X@X@X@X@X@X@X@X@X@X@X@X@X@X@X@X@X@X@X@X@X@X@X@X@X@X@X@X@X@X@X@X@X@X@X@X@X@X@X@X@X@X@X@X@X",
"@X@X@X@X@X@X@X@X@X@X@X@X@X@X@X@X@X@X@X@X@X@X@X@X@X@X@X@X@X@X@X@X@X@X@X@X@X@X@X@X@X@X@X@X@X@X@X@X@X@X@X@X@X@X@X@X@X@X@X@X@X@X@X@X",
"@X@X@X@X@X@X@X0 0 q q q @X@X@X@X@X@X@X@X@X@X@X@X@X@X@X@X0 0 q q q @X@X@X@X@X@X@X@X@X@X@X@X@X@X@X@X@X@X@X8 7 7 0 0 @X@X@X@X@X@X@X",
"@X@X@X@X@X@X@X- 5 0 k k @X@X@X@X@X@X@X@X@X@X@X@X@X@X@X@X8 0 a l l k @X@X@X@X@X@X@X@X@X@X@X@X@X@X@X@X@Xr k z 0 5 4 @X@X@X@X@X@X@X",
"@X@X@X@X@X@X@X$ - j W Y r X     @X@X@X@X@X@X@X@Xq q q 0 0 0 N E Q L 0 0 q q 8 q @X@X@X@X@X@X@X      + e W I e : $ @X@X@X@X@X@X@X",
"@X@X@X@X@X@X@X  & b l.] r X       @X@X@X@X@X@X8 0 0 0 0 q h Y z.l.Y h 0 0 0 0 0 0 @X@X@X@X@X@X      + s [ o.b #   @X@X@X@X@X@X@X",
"@X@X@X@X@X@X@X  % b ..| Z r 6 6 : & @X@X@X@X8 k l P L l h h W c.m.Q C N C L N N z 6 @X@X@X@X& > 6 6 r I o.| s @   @X@X@X@X@X@X@X",
"@X@X@X@X@X@X@X  % e ] f.| [ W U M 6 X     X 6 Z ~ } o.Q l h Y c.m.f.~ ] | l.{ E C 6       @ 6 M I ) [ | .._ r @   @X@X@X@X@X@X@X",
"@X@X@X@X@X@X@X  @ w H { x.F.n.k.~ s % o + % w Z ] k.D.l.L N Q D.F.n.h.k.F.J.z.' Z 6 $ o o & f _ k.D.F.k.{ H 6 +   @X@X@X@X@X@X@X",
"@X@X@X@X@X@X@X@Xo > e A ] j.n.n.g.U s s v b v e x E h.h.[ ) l.G.I.D.n.D.J.D.) v a v b c s j W h.x.N.z._ A w > o @X@X@X@X@X@X@X@X",
"@X@X@X@X@X@X@X@X@X+ $ 6 Z d.x.D.D.f.~ _ ....I 6 > A { z.x.G.H.I.I.J.J.J.I.c.Y > 6 I o..._ _ h.D.D.k.} Z > @ + @X@X@X@X@X@X@X@X@X",
"@X@X@X@X@X@X@X@X@X@X  * M ` k.n.D.n.k.N.H.G.) e r Z } x.F.I.U.U.I.I.I.I.U.D.W w j [ J.F.x.k.x.D.D.k._ f &   @X@X@X@X@X@X@X@X@X@X",
"@X@X@X@X@X@X@X@X@X    = M ` d.k.k.D.D.D.J.J.z.[ ) g.D.F.J.I.U.U.U.U.U.U.U.G.v.) [ x.I.J.D.D.n.x.k.d.' k &   @X@X@X@X@X@X@X@X@X@X",
"@X@X@X@X@X@X@X@X@X@X  * v ! ' { g.n.H.I.I.I.J.H.F.I.J.J.I.I.U.U.U.U.U.U.U.U.J.H.J.J.I.I.I.H.n.h.` ` ! f &   @X@X@X@X@X@X@X@X@X@X",
"@X@X@X@X@X@X@X@X@X@X  ; w M H _ h.n.I.I.U.U.U.U.U.U.U.U.I.U.U.U.U.U.U.U.U.U.U.U.U.U.I.I.I.J.n.d.! H v 9 %   @X@X@X@X@X@X@X@X@X@X",
"@X@X@X@X@X@X@X@X@X@X@X@X# * a T d.n.I.I.U.U.U.U.U.U.U.U.I.I.U.U.U.U.U.U.U.U.U.U.U.U.I.I.I.J.n.d.U a * # @X@X@X@X@X@X@X@X@X@X@X@X",
"@X@X@X@X@X@X@X@X@X@X@X@XO + 5 x _ h.F.J.I.U.U.U.I.U.U.U.U.U.U.U.U.U.U.U.U.U.U.U.U.U.U.J.J.D.f.E M > + o @X@X@X@X@X@X@X@X@X@X@X@X",
"@X@X@X@X@X@X@X@X@X@X@X@X; ; - 5 s R k.D.H.U.U.U.U.U.U.U.U.U.U.U.U.U.U.U.U.U.U.U.U.U.U.H.D.h.U k 6 : & % @X@X@X@X@X@X@X@X@X@X@X@X",
"@X@X@X@X@X@X@X@X@X@X@X@X5 4 = $ : v ` k.D.I.I.U.U.U.U.U.U.U.U.U.U.U.U.U.U.U.U.U.U.I.U.D.j.^ f * $ - 4 4 @X@X@X@X@X@X@X@X@X@X@X@X",
"@X@X@X@X@X@X@X@X@X@X@X@X8 5 - $ * j _ h.x.D.J.I.U.U.U.U.U.U.U.U.U.U.U.U.U.U.U.U.J.J.D.x.h.! f ; % - q 7 @X@X@X@X@X@X@X@X@X@X@X@X",
"@X@X@X@X@X@X@X@X@X@X@X@Xq 5 4 - 6 N ` d.k.k.n.J.I.I.I.U.U.U.U.U.U.U.U.U.U.U.U.U.J.D.k.g.d.' x 5 - 4 q q q 0 @X@X@X@X@X@X@X@X@X@X",
"@X@X@X@X@X@X@X@X@X@X@X@Xa a a q h Z ` d.d.g.x.F.I.I.U.U.U.U.U.U.U.U.U.U.U.U.U.U.F.x.d.s.s.' Z a 0 a 0 a 0 0 @X@X@X@X@X@X@X@X@X@X",
"@X@X@X@X@X@X@X@X@X@X@Xh l x C C Z R ` d.s.d.j.F.U.U.U.U.U.I.U.U.U.U.U.U.U.U.U.U.F.k.s.s.s.s.J C x P x x x g a @X@X@X@X@X@X@X@X@X",
"@X@X@X@X@X@X@X@X@X@X8 z G ! ! ^ ~ ` ` s.d.d.x.F.U.U.U.U.U.U.U.I.U.U.U.U.U.U.U.U.F.k.s.s.s.s.` ^ ~ ~ ! T F B z a 0 @X@X@X@X@X@X@X",
"@X@X@X@X@X@X@X@X@Xk l P ~ f.d.d.s.s.s.}  .:.M.D.J.H.F.J.I.I.I.I.I.I.I.I.J.J.F.J.D.M.:.X.d.s.s.s.s.d.d.s.^ T G l l @X@X@X@X@X@X@X",
"@X@X@X@X@X@X@X@Xk L Q | l.n.k.d.d.s.s. .,.4.V.M.x.x.x.D.F.I.I.I.I.I.I.F.D.k.x.k.M.,.4.,.g.s.s.s.f.x.n.n.j.h.| ] Y P 0 @X@X@X@X@X",
"@X@X@X@X@X@X@X0 l W c.J.J.I.n.h.s.s.s.:.1.r.4.:.d.d.d.k.F.I.I.I.U.U.I.D.k.d.d.g.M.1.r.1.;.s.s.s.k.n.I.J.J.H.J.G.| L 0 0 @X@X@X@X",
"@X@X@X@X@X@Xl P Y | G.J.H.m.k.h.s.d.s.;.1.t.9.L.C.j.d.k.n.D.D.D.D.F.D.x.h.d.j.C.L.y.t.1.;.s.s.s.h.x.m.m.D.D.D.x.Q k 4 = @X@X@X@X",
"@X@X@X@X@Xe P ] l.D.J.H.n.k.d.d.s.s.s.;.2.u.a.XXP.C.k.g.h.k.k.k.k.k.k.g.d.k.Z.+XOXa.t.2.;.s.s.s.d.k.k.g.k.h.d.` C 2 @ + @X@X@X@X",
"@X@X@X@X5 0 L l.J.J.J.D.g.` ` } s.s.s.;.2.u.a.OXOXP.M.k.d.s.s.s.s.s.' s.g.M.P.OXOXa.t.2.:.s.s.d.` ` _ _ ~ ! K V p * .   @X@X@X@X",
"@X@X@X@X% = k ] z.D.n.} U k C ! s.s.d.;.2.u.3.#.5.Z.P.Z.j.s.s.s.s.s.d.M.C.P.7.=.#.&.t.1.:.s.s.s.R Z d d g p w 3 : # . @X@X@X@X@X",
"@X@X@X@XO $ 9 U } f.f.U e * a T { d.d.>.1.e.O.u i 5.OXP.V.d.s.s.s.s.g.C.+XoX=.y u $.e.1.;.s.d.` H w & @ @ @ @ + + @X@X@X@X@X@X@X",
"@X@X@X@X@X. : v G H Z v - % 8 H d.f.h.>.<.%.S < t #.OXoXV.' ' ` ' s.{ Z.XXOX@., < S &.<.6.h.f.} G > .             @X@X@X@X@X@X@X",
"@X@X@X@X@X@X& > 2 2 6 > = = f R f.z.S.B.>.*.D y n -.p.0.;.! ! K J K _ ;.i.i.@.c c D *.;.B.A.l.} Z > .     @X@X@X@X@X@X@X@X@X@X@X",
"@X@X@X@X@X@X@XX X X X @ = q l R f.b.R.S.../ T H / -.y.1.( R T T J ! / *.2.y.-./ U K W ..S.T.c.} G > .   @X@X@X@X@X@X@X@X@X@X@X@X",
"@X@X@X@X@X@X@X@X      + - a x R } c.S.b.o.| ..l.6.7.w.q.6.v.o.| f.h.v.6.q.q.7.6.l.| | v.b.b.l.` A : .   @X@X@X@X@X@X@X@X@X@X@X@X",
"@X@X@X@X@X@X@X@X@X@X@X@X5 0 N ! } f.l.c.b.Y.W.~.'.(.(./.~.~.Q.T.T.Q.'.~././._.~.~.W.S.A.c.h.{ R m = .   @X@X@X@X@X@X@X@X@X@X@X@X",
"@X@X@X@X@X@X@X@X@X@X@X@X8 0 k U R ` ` z.S.W.[.|..X{.^.[.|..X{.^.^.|..X|.^.^.{..X|.[.R.A.l.` T B p *     @X@X@X@X@X@X@X@X@X@X@X@X",
"@X@X@X@X@X@X@X@X@X@X@X@X@X0 0 p k H ` f.c.S.~.|..X{.^.{. X.X|.^.^.|..X X{.^.|..X|.Q.S.v.d.` B w : & @X@X@X@X@X@X@X@X@X@X@X@X@X@X",
"@X@X@X@X@X@X@X@X@X@X@X@X@X@X@X@ * k _ d.d.h.E.}. X{.^.{. X X|.^.^.|. X|.^.^.}..X}.K.h.| } R g * o @X@X@X@X@X@X@X@X@X@X@X@X@X@X@X",
"@X@X@X@X@X@X@X@X@X@X@X@X@X@X@XX ; g ! ^ ` ` c.`.].`.W.W.'.].~.W.W.~.[.'.Q.R.~.].`.m.d.~ T M 6 # o @X@X@X@X@X@X@X@X@X@X@X@X@X@X@X",
"@X@X@X@X@X@X@X@X@X@X@X@X@X@X@X; 1 k J ! ! ! d.c.b.b.c.b.D.A.D.c.c.A.G.G.c.c.b.G.m.h.` G a > - = = @X@X@X@X@X@X@X@X@X@X@X@X@X@X@X",
"@X@X@X@X@X@X@X@X@X@X@X@X@X@X@X5 8 x F J J J ^ ` d.} d.d.d.f.d.f.f.f.d.d.d.d.d.d.d.s.` M > @ ; 4 q @X@X@X@X@X@X@X@X@X@X@X@X@X@X@X",
"@X@X@X@X@X@X@X@X@X@X@X@X@X@X@X; - d F J J G G G T ~ ` d.s.d.d.s.s.s.s.s.} ` ` ^ ^ ^ ^ C w : 1 q 8 @X@X@X@X@X@X@X@X@X@X@X@X@X@X@X",
"@X@X@X@X@X@X@X@X@X@X@X@X@X@X@XO # 3 F J J J B x x T ^ d.{ s.d.s.d.d.d.d.s.` ^ ! J J J F B f p 0 8 @X@X@X@X@X@X@X@X@X@X@X@X@X@X@X",
"@X@X@X@X@X@X@X@X@X@X@X@X@X@X@X  + 1 f m m m p 3 8 x U T T T T T T T T T T T G F F F J J J F g 2 4 @X@X@X@X@X@X@X@X@X@X@X@X@X@X@X",
"@X@X@X@X@X@X@X@X@X@X@X@X@X@X@X@Xo * > > 1 : * * ; > 8 9 w w w 9 9 w 9 w 9 w p z x F J J J F p = % @X@X@X@X@X@X@X@X@X@X@X@X@X@X@X",
"@X@X@X@X@X@X@X@X@X@X@X@X@X@X@X@X@X. . . . . X . . . . o X X X X X o X X X + = 5 d x F J F m 3 +   @X@X@X@X@X@X@X@X@X@X@X@X@X@X@X",
"@X@X@X@X@X@X@X@X@X@X@X@X@X@X@X@X@X@X                                      . + ; 1 p p d d p * o   @X@X@X@X@X@X@X@X@X@X@X@X@X@X@X",
"@X@X@X@X@X@X@X@X@X@X@X@X@X@X@X@X@X@X@X@X@X@X@X@X@X@X@X@X@X@X@X@X@X@X@X@X@X@X+ + # # ; ; * * # @X@X@X@X@X@X@X@X@X@X@X@X@X@X@X@X@X",
"@X@X@X@X@X@X@X@X@X@X@X@X@X@X@X@X@X@X@X@X@X@X@X@X@X@X@X@X@X@X@X@X@X@X@X@X@X@X@X              @X@X@X@X@X@X@X@X@X@X@X@X@X@X@X@X@X@X",
"@X@X@X@X@X@X@X@X@X@X@X@X@X@X@X@X@X@X@X@X@X@X@X@X@X@X@X@X@X@X@X@X@X@X@X@X@X@X@X@X          @X@X@X@X@X@X@X@X@X@X@X@X@X@X@X@X@X@X@X",
"@X@X@X@X@X@X@X@X@X@X@X@X@X@X@X@X@X@X@X@X@X@X@X@X@X@X@X@X@X@X@X@X@X@X@X@X@X@X@X@X@X@X@X@X@X@X@X@X@X@X@X@X@X@X@X@X@X@X@X@X@X@X@X@X",
"@X@X@X@X@X@X@X@X@X@X@X@X@X@X@X@X@X@X@X@X@X@X@X@X@X@X@X@X@X@X@X@X@X@X@X@X@X@X@X@X@X@X@X@X@X@X@X@X@X@X@X@X@X@X@X@X@X@X@X@X@X@X@X@X",
"@X@X@X@X@X@X@X@X@X@X@X@X@X@X@X@X@X@X@X@X@X@X@X@X@X@X@X@X@X@X@X@X@X@X@X@X@X@X@X@X@X@X@X@X@X@X@X@X@X@X@X@X@X@X@X@X@X@X@X@X@X@X@X@X",
"@X@X@X@X@X@X@X@X@X@X@X@X@X@X@X@X@X@X@X@X@X@X@X@X@X@X@X@X@X@X@X@X@X@X@X@X@X@X@X@X@X@X@X@X@X@X@X@X@X@X@X@X@X@X@X@X@X@X@X@X@X@X@X@X",
"@X@X@X@X@X@X@X@X@X@X@X@X@X@X@X@X@X@X@X@X@X@X@X@X@X@X@X@X@X@X@X@X@X@X@X@X@X@X@X@X@X@X@X@X@X@X@X@X@X@X@X@X@X@X@X@X@X@X@X@X@X@X@X@X",
"@X@X@X@X@X@X@X@X@X@X@X@X@X@X@X@X@X@X@X@X@X@X@X@X@X@X@X@X@X@X@X@X@X@X@X@X@X@X@X@X@X@X@X@X@X@X@X@X@X@X@X@X@X@X@X@X@X@X@X@X@X@X@X@X",
"@X@X@X@X@X@X@X@X@X@X@X@X@X@X@X@X@X@X@X@X@X@X@X@X@X@X@X@X@X@X@X@X@X@X@X@X@X@X@X@X@X@X@X@X@X@X@X@X@X@X@X@X@X@X@X@X@X@X@X@X@X@X@X@X",
"@X@X@X@X@X@X@X@X@X@X@X@X@X@X@X@X@X@X@X@X@X@X@X@X@X@X@X@X@X@X@X@X@X@X@X@X@X@X@X@X@X@X@X@X@X@X@X@X@X@X@X@X@X@X@X@X@X@X@X@X@X@X@X@X"
};
