/* XPM */
static char *result[] = {
/* columns rows colors chars-per-pixel */
"64 64 13 1 ",
"  c black",
". c #682828",
"X c #383878",
"o c #784040",
"O c #C03838",
"+ c #A87840",
"@ c #F86848",
"# c #D89070",
"$ c #70A0C0",
"% c #F8C090",
"& c #B0B0D0",
"* c #E8E8F8",
"= c None",
/* pixels */
"================================================================",
"================================================================",
"================================================================",
"===================........................=====================",
"===================........................=====================",
"===================........................=====================",
"================...OOO@@@@@@@@@@@@@@@@@@OOO...==================",
"================...OOO@@@@@@@@@@@@@@@@@@OOO...==================",
"================...OOO@@@@@@@@@@@@@@@@@@OOO...==================",
"================...@@@@@@@@@@@@@@@@@@@@@@@@...==================",
"================...@@@@@@@@@@@@@@@@@@@@@@@@...==================",
"================...@@@@@@@@@@@@@@@@@@@@@@@@...==================",
"=============...OOO@@@@@@@@@@@@@@@@@@@@@@@@OOO...===============",
"=============...OOO@@@@@@@@@@@@@@@@@@@@@@@@OOO...===============",
"=============...OOO@@@@@@@@@@@@@@@@@@@@@@@@OOO...===============",
"=============   OOOOOO@@@@@@@@@@@@@@@@@@OOOOOO   ===============",
"=============   OOOOOO@@@@@@@@@@@@@@@@@@OOOOOO   ===============",
"=============   OOOOOO@@@@@@@@@@@@@@@@@@OOOOOO   ===============",
"=============   OOOOOOOOOOOO******OOOOOOOOOOOO   ===============",
"=============   OOOOOOOOOOOO******OOOOOOOOOOOO   ===============",
"=============   OOOOOOOOOOOO******OOOOOOOOOOOO   ===============",
"==========   +++...&&&OOO&&&OOOOOO&&&OOO&&&...+++   ============",
"==========   +++...&&&OOO&&&OOOOOO&&&OOO&&&...+++   ============",
"==========   +++...&&&OOO&&&OOOOOO&&&OOO&&&...+++   ============",
"==========   ###   XXX******************XXX   ###   ============",
"==========   ###   XXX******************XXX   ###   ============",
"==========   ###   XXX******************XXX   ###   ============",
"=============   ooo###XXXXXXXXXXXXXXXXXX###ooo   ===============",
"=============   ooo###XXXXXXXXXXXXXXXXXX###ooo   ===============",
"=============   ooo###XXXXXXXXXXXXXXXXXX###ooo   ===============",
"=============   ######%%%   %%%%%%   %%%######   ooo============",
"=============   ######%%%   %%%%%%   %%%######   ooo============",
"=============   ######%%%   %%%%%%   %%%######   ooo============",
"================ooo######ooo%%%%%%ooo######oooXXX###ooo=========",
"================ooo######ooo%%%%%%ooo######oooXXX###ooo=========",
"================ooo######ooo%%%%%%ooo######oooXXX###ooo=========",
"================      ooo############ooo      XXX###ooo=========",
"================      ooo############ooo      XXX###ooo=========",
"================      ooo############ooo      XXX###ooo=========",
"=============   XXXXXXOOO            ...OOOXXX      ============",
"=============   XXXXXXOOO            ...OOOXXX      ============",
"=============   XXXXXXOOO            ...OOOXXX      ============",
"=============ooo%%%%%%oooOOO&&&&&&OOOOOOOOOooo==================",
"=============ooo%%%%%%oooOOO&&&&&&OOOOOOOOOooo==================",
"=============ooo%%%%%%oooOOO&&&&&&OOOOOOOOOooo==================",
"=============ooo######ooo@@@******@@@OOO      ==================",
"=============ooo######ooo@@@******@@@OOO      ==================",
"=============ooo######ooo@@@******@@@OOO      ==================",
"================oooooo               XXX$$$   ==================",
"================oooooo               XXX$$$   ==================",
"================oooooo               XXX$$$   ==================",
"=========================      XXX$$$$$$   =====================",
"=========================      XXX$$$$$$   =====================",
"=========================      XXX$$$$$$   =====================",
"===============================   XXXXXX   =====================",
"===============================   XXXXXX   =====================",
"===============================   XXXXXX   =====================",
"==================================      ========================",
"==================================      ========================",
"==================================      ========================",
"================================================================",
"================================================================",
"================================================================",
"================================================================"
};
