/* XPM */
static char *result[] = {
/* columns rows colors chars-per-pixel */
"64 64 140 2 ",
"   c #1C1811",
".  c #083817",
"X  c #083D1B",
"o  c #262117",
"O  c #2C2719",
"+  c #2E291A",
"@  c #342D1F",
"#  c #3A331F",
"$  c #3C3320",
"%  c #3C3D24",
"&  c #423724",
"*  c #443A25",
"=  c #4A3F27",
"-  c #09461E",
";  c #1F4A24",
":  c #0E5325",
">  c #0C552A",
",  c #0D5D2C",
"<  c #125827",
"1  c #244E26",
"2  c #3D572E",
"3  c #3B582E",
"4  c #3F5D30",
"5  c #0D632B",
"6  c #0D6A2E",
"7  c #1E672F",
"8  c #0E732F",
"9  c #0E6431",
"0  c #0E6C31",
"q  c #116D32",
"w  c #1F6C32",
"e  c #0E7332",
"r  c #0F7B34",
"t  c #0F7D38",
"y  c #147533",
"u  c #1C7432",
"i  c #127B35",
"p  c #197A36",
"a  c #107E38",
"s  c #1C7E39",
"d  c #2B672E",
"f  c #2F692F",
"g  c #27752F",
"h  c #206730",
"j  c #216C32",
"k  c #2C6D31",
"l  c #297131",
"z  c #4F4128",
"x  c #534429",
"c  c #53492B",
"v  c #5E4C2D",
"b  c #465C2D",
"n  c #4A5D2E",
"m  c #415D30",
"M  c #575430",
"N  c #595430",
"B  c #624F2C",
"V  c #64502C",
"C  c #68522C",
"Z  c #735A2E",
"A  c #795D2E",
"S  c #635230",
"D  c #6A5530",
"F  c #645B30",
"G  c #6E5830",
"H  c #456A2E",
"J  c #55652E",
"K  c #456231",
"L  c #7C622D",
"P  c #83652C",
"I  c #8C662C",
"U  c #0F8233",
"Y  c #0F8C33",
"T  c #108436",
"R  c #1A8137",
"E  c #118C35",
"W  c #198E37",
"Q  c #108238",
"!  c #1D8239",
"~  c #148C38",
"^  c #1A8C3A",
"/  c #0F9232",
"(  c #109432",
")  c #199437",
"_  c #169935",
"`  c #199A37",
"'  c #169138",
"]  c #1B933A",
"[  c #1D9A3A",
"{  c #21843B",
"}  c #238B3C",
"|  c #23923E",
" . c #239D3D",
".. c #26A43E",
"X. c #28A53F",
"o. c #258C41",
"O. c #288E41",
"+. c #239340",
"@. c #2B9344",
"#. c #269F40",
"$. c #2C9C45",
"%. c #2E9C48",
"&. c #329C46",
"*. c #339D49",
"=. c #27A040",
"-. c #2DA344",
";. c #2DA942",
":. c #32A447",
">. c #34AD46",
",. c #35A44A",
"<. c #3AA64D",
"1. c #36AA49",
"2. c #3DAB4E",
"3. c #2EB245",
"4. c #32B147",
"5. c #38B247",
"6. c #37B348",
"7. c #3CB34B",
"8. c #3EBA4C",
"9. c #3DA650",
"0. c #3EA950",
"q. c #41AD4F",
"w. c #42B44F",
"e. c #41BB4E",
"r. c #42AB52",
"t. c #45B352",
"y. c #48B653",
"u. c #45BC51",
"i. c #4ABD52",
"p. c #3DC24E",
"a. c #45C354",
"s. c #4CC354",
"d. c #47CA54",
"f. c #4DC957",
"g. c #4ECC58",
"h. c #50CD59",
"j. c #4ED25A",
"k. c #52D45B",
"l. c #54D95D",
"z. c None",
/* pixels */
"z.z.z.z.z.z.z.z.z.z.z.z.z.z.z.z.z.z.z.z.z.z.z.z.z.z.z.z.z.} +.| +.@.} z.z.z.z.z.z.z.z.z.z.z.z.z.z.z.z.z.z.z.z.z.z.z.z.z.z.z.z.z.",
"z.z.z.z.z.z.z.z.z.z.z.z.z.z.z.z.z.z.z.z.z.z.z.z.z.z.z.z.s ,.u.a.a.u.<.{ z.z.z.z.z.z.z.z.z.z.z.z.z.z.z.z.z.z.z.z.z.z.z.z.z.z.z.z.",
"z.z.z.z.z.z.z.z.z.z.z.z.z.z.z.z.z.z.z.z.z.z.z.z.z.z.p s @.a.l.l.l.l.a.@.{ p z.z.z.z.z.z.z.z.z.z.z.z.z.z.z.z.z.z.z.z.z.z.z.z.z.z.",
"z.z.z.z.z.z.z.z.z.z.z.z.z.z.z.z.z.z.z.z.z.z.z.z.z.} } O.t.g.l.l.l.l.k.u.@.} } z.z.z.z.z.z.z.z.z.z.z.z.z.z.z.z.z.z.z.z.z.z.z.z.z.",
"z.z.z.z.z.z.z.z.z.z.z.z.z.z.z.z.z.z.z.z.z.} | | } <.1.,.f.l.l.l.l.l.l.f.,.2.1.} } +.} z.z.z.z.z.z.z.z.z.z.z.z.z.z.z.z.z.z.z.z.z.",
"z.z.z.z.z.z.z.z.z.z.z.z.z.z.z.z.z.z.z.z.} 1.u.e.q.w.8.>.j.l.l.l.l.l.l.k.4.8.w.q.u.a.2.} z.z.z.z.z.z.z.z.z.z.z.z.z.z.z.z.z.z.z.z.",
"z.z.z.z.z.z.z.z.z.z.z.z.z.z.z.z.z.z.z.a :.d.l.l.s.i.w.p.j.l.l.l.l.l.l.k.p.w.y.s.l.l.f.1.! z.z.z.z.z.z.z.z.z.z.z.z.z.z.z.z.z.z.z.",
"z.z.z.z.z.z.z.z.z.z.z.z.z.z.z.z.z.z.y ! a.l.l.k.s.y.i.l.l.l.l.k.l.l.l.l.l.s.y.s.j.l.l.d.^ y z.z.z.z.z.z.z.z.z.z.z.z.z.z.z.z.z.z.",
"z.z.z.z.z.z.z.z.z.z.z.z.z.z.z.z.{ } { ^ s.h.k.h.s.i.s.k.k.l.l.l.l.l.l.k.k.s.i.s.f.h.j.d.] ! } { z.z.z.z.z.z.z.z.z.z.z.z.z.z.z.z.",
"z.z.z.z.z.z.z.z.z.z.z.z.z.z.z.} ,.1.X.} 5.e.e.s.i.i.s.s.k.k.k.l.l.k.k.k.s.s.i.i.s.i.e.5.| $.2.1.| z.z.z.z.z.z.z.z.z.z.z.z.z.z.z.",
"z.z.z.z.z.z.z.z.z.z.z.z.z.z.! &.y.s.w.&.;.;.6.s.s.i.i.i.s.f.h.k.k.f.f.s.s.i.s.s.s.6.X.X.$.2.i.i.:.{ z.z.z.z.z.z.z.z.z.z.z.z.z.z.",
"z.z.z.z.z.z.z.z.z.z.z.z.z.6 { w.i.i.2.X.4.3.8.d.f.s.s.i.i.i.s.f.g.s.s.i.i.i.s.f.f.a.3.6.:.5.y.i.y.} 6 z.z.z.z.z.z.z.z.z.z.z.z.z.",
"z.z.z.z.z.z.z.z.z.z.z.z.z.6 ! r.y.q.X.X.d.k.k.k.k.h.s.i.i.i.s.s.s.s.i.s.i.s.f.k.l.j.j.d.X.X.2.t.r.} 6 z.z.z.z.z.z.z.z.z.z.z.z.z.",
"z.z.z.z.z.z.z.z.z.z.z.z.z.6 s *.q... .e.k.l.l.l.l.k.f.i.i.i.i.i.i.i.i.s.s.s.k.l.l.l.l.k.s.X.X.q.<.s 6 z.z.z.z.z.z.z.z.z.z.z.z.z.",
"z.z.z.z.z.z.z.z.z.z.z.z.z.y s %.q.| ..s.h.l.l.l.k.h.s.s.s.s.s.i.i.s.s.s.i.s.f.l.l.l.l.k.s.....<.%.! y z.z.z.z.z.z.z.z.z.z.z.z.z.",
"z.z.z.z.z.z.z.z.z.z.z.z.z.{ o.@.1. ...i.f.k.l.k.h.s.i.s.f.f.s.s.s.s.s.s.s.i.s.f.l.l.k.f.s... .1.%.O.{ z.z.z.z.z.z.z.z.z.z.z.z.z.",
"z.z.z.z.z.z.z.z.z.z.z.z.{ &.q.r.r.-.X.5.u.f.h.h.s.i.s.s.k.l.h.s.f.k.k.k.f.i.i.i.g.k.f.s.5.;.-.r.r.r.&.s z.z.z.z.z.z.z.z.z.z.z.z.",
"z.z.z.z.z.z.z.z.z.z.z.y &.q.i.i.t.<.:.-.5.e.e.e.e.e.s.k.l.l.k.k.h.k.l.l.k.f.e.8.8.e.e.6.;.-.2.i.i.t.r.*.y z.z.z.z.z.z.z.z.z.z.z.",
"z.z.z.z.z.z.z.z.z.z.z.p 2.i.s.f.i.t.2.-.;.;.;.;...5.f.k.l.l.l.k.h.h.k.l.k.f.8.X.;.X.;.-.-.<.t.i.h.i.y.q.p z.z.z.z.z.z.z.z.z.z.z.",
"z.z.z.z.z.z.z.z.z.z.z.y q.i.s.f.i.y.r.r.#.=.=. ._ >.s.g.k.l.k.f.i.f.k.k.h.s.5.`  . .#.=.0.r.t.s.f.s.i.2.p z.z.z.z.z.z.z.z.z.z.z.",
"z.z.z.z.z.z.z.z.z.z.z.y 2.i.i.s.i.y.r.r.0.r.r.<. .;.8.s.h.k.d.6.5.e.s.h.i.w.;. .<.2.9.r.r.y.u.i.i.i.t.<.u z.z.z.z.z.z.z.z.z.z.z.",
"z.z.z.z.z.z.z.z.z.z.z.y &.q.i.i.i.7.2.r.r.t.t.0.<.-.:.7.8.e.5.X.X.1.e.e.8.;.-.1.r.r.r.r.r.0.2.i.i.t.q.*.y z.z.z.z.z.z.z.z.z.z.z.",
"z.z.z.z.z.z.z.z.z.z.z.y { &.r.2.r.:.:.r.r.t.t.r.r.<.-.:.;.-.-.-.-.-.X.:.-.;.,.r.r.r.r.r.y.:.:.7.r.9.*.{ y z.z.z.z.z.z.z.z.z.z.z.",
"z.z.z.z.z.z.z.z.z.z.z.z.i | $.$.-.=.:.r.t.t.t.t.r.r.1.=. ...:.r.q.,. ...$.,.r.r.t.t.t.y.i.1.#.$.$.%.} Q i z.z.z.z.z.z.z.z.z.z.z.",
"z.z.z.z.z.z.z.z.z.z.p ! | W ~ E ' $.0.t.y.i.s.i.r.r.r.9.0.r.r.r.t.q.q.<.:.1.r.r.u.i.i.i.i.t.:.' ~ ~ ' | { p z.z.z.z.z.z.z.z.z.z.",
"z.z.z.z.z.z.z.z.z.z.{ *.<. .) Y Y %.r.i.i.i.i.i.r.0.0.r.r.t.i.u.y.i.y.q. .$.<.r.y.i.i.i.i.y.%.T Y ' #.,.*.{ z.z.z.z.z.z.z.z.z.z.",
"z.z.z.z.z.z.z.z.z.6 s <.r.<...( T @.r.i.i.i.s.y.0.-.$.0.t.u.i.i.i.s.i.w.` ] &.2.r.i.i.i.i.r.%.~ /  .,.r.r.{ 6 z.z.z.z.z.z.z.z.z.",
"z.z.z.z.z.z.z.z.z.6 p &.<.r.:.( E +.:.t.u.i.u.7.-.] ] -.t.i.i.i.i.i.i.q.` / ^ $.9.t.i.u.t.,.+.E ( -.r.<.:.R 8 z.z.z.z.z.z.z.z.z.",
"z.z.z.z.z.z.z.z.e e i W #.,. .( / ( +.%.1.6.1.-.[ E Y ' 2.t.u.i.a.i.t.0.` E ~ ^ %.,.1.1.,.] ' ( [ ,.0.:.W r 8 8 z.z.z.z.z.z.z.z.",
"z.z.z.z.z.z.z.8 U Q r a W ] ) ( ` ' ( ] [ [ [ ' ~ Y Y ' %.0.t.u.i.t.0.*.' E / / ] ] +.] ^ ' / ( #.*.&.' T U T r e z.z.z.z.z.z.z.",
"z.z.z.z.z.z.z.e Y E Q r r U U ~ #. .( E E E E Y Y / / ' +.:.9.0.0.0.,.+.' ( / / / / E ~ ~ _ ) _ +.o.! U r T E E e z.z.z.z.z.z.z.",
"z.z.z.z.z.z.z.8 E E Y a r r e Q <.:. .( ~ ~ Y Y / ( _ ( E +.%.%.%.%.+./ ( ( _ ( ( / _ #.#.#. . .a r e r Q E ( ( 8 z.z.z.z.z.z.z.",
"z.z.z.z.z.z.z.8 / ( / T Q U r i *.q.:. . .) ( / / `  .[ ( E ~ W ~ ~ E ( [  .` ( / / _ $.<.q.1.$.y i Q Q Y E ( E 0 z.z.z.z.z.z.z.",
"z.z.z.z.z.z.z.8 / ( ( ' T Q r y &.q.q.<.,. .( ( ` -.,.,. .` ' Y Y ' ] [ :.1.-.` Y Y (  .,.<.:.] 8 Q Q Q ( ( E Y e z.z.z.z.z.z.z.",
"z.z.z.z.z.z.z.8 / / ( / T Q r i } :.<.q.<. .Y E $.<.r.r.:.-...` _ ..-.:.r.r.0.$.R r U / [  .] U r a Q Q ( / Y t 8 z.z.z.z.z.z.z.",
"z.z.z.z.z.z.z.y U / / / Q Q r i U | -.&. .] T Q ,.r.r.r.r.r.<. . .,.r.r.r.r.r.,.p 8 r U U U U 8 Q Q Q Q T E Y r 0 z.z.z.z.z.z.z.",
"z.z.z.z.z.z.z.z.8 U U U U T T Q r T E E E T 8 i $.<.r.r.r.r.<.-.:.<.r.r.r.r.9.*.y r t r r e t Q T E T e e r i 0 z.z.z.z.z.z.z.z.",
"z.z.z.z.z.z.z.z.z.r 8 6 8 Y Y T t r r 8 r t i e ^ #.9.r.r.<.&.| ] $.<.r.r.9.-.^ i t Q a a a U Q E ( T 6 9 0 e z.z.z.z.z.z.z.z.z.",
"z.z.z.z.z.z.z.z.z.z.5 9 U / ( / T t i r r t t r U W $.<.r.$.] U r W $.<.<.$.] i t Q Q Q Q Q Y E Y / E r 9 5 z.z.z.z.z.z.z.z.z.z.",
"z.z.z.z.z.z.z.z.z.z.z.8 ( ( ( ( E E E T Q Q Q Q i i ^ O.} ^ T e 8 U ^ O.@.^ U r Q Q Y Q Q T E ( E E ( / e z.z.z.z.z.z.z.z.z.z.z.",
"z.z.z.z.z.z.z.z.z.z.z.8 E ( ( ( ( / Y Q Q Y Y Q Q t i i i i t Y E i r i r r r Q T / / ~ t Y Y / ( ( ( Y e z.z.z.z.z.z.z.z.z.z.z.",
"z.z.z.z.z.z.z.z.z.z.z.e / ( ( ( ( E Q Q ' / Y Y T Q t r r t E / ( T r U t Q Q T Y / / Y r t Y ( ( ( ( T 8 z.z.z.z.z.z.z.z.z.z.z.",
"z.z.z.z.z.z.z.z.z.z.z.e U Y ( / Y a t t ( ( / E ( / E Q Y E Y ( ( ( ( E Q ~ ( / ( ( ( / e r Q ~ ( ( E t e z.z.z.z.z.z.z.z.z.z.z.",
"z.z.z.z.z.z.z.z.z.z.z.e r T E E Q r e U / ( / ~ / ( E Q Y E ( ( ( / ( ( Q Q ( ( ( ( ( / r r r t Y / T r 0 z.z.z.z.z.z.z.z.z.z.z.",
"z.z.z.z.z.z.z.z.z.z.z.z.6 i t t r 9 6 / ( ( ( ( ( ( / t / ( ( ( ( ( / E U Q T ( ( ( ( / T e 0 r r r r 6 z.z.z.z.z.z.z.z.z.z.z.z.",
"z.z.z.z.z.z.z.z.z.z.z.z.z.6 6 6 9 , 0 Y ( ( ( ( ( ( Y e Y ( ( ( ( ( E Y 0 t T / ( ( ( Y Q 0 9 0 6 6 6 z.z.z.z.z.z.z.z.z.z.z.z.z.",
"z.z.z.z.z.z.z.z.z.z.z.z.z.z.- - - > 8 Y / ( ( ( ( Y r 9 t T / ( ( ( / t 9 e Q ~ ( ( / Y Q 0 > - - - z.z.z.z.z.z.z.z.z.z.z.z.z.z.",
"z.z.z.z.z.z.z.z.z.z.z.z.z.z.z.z.z.X 5 8 U / ( ( E Q 0 9 t T / / ( ( Y U 9 q a Q / / Y r r 5 - z.z.z.z.z.z.z.z.z.z.z.z.z.z.z.z.z.",
"z.z.z.z.z.z.z.z.z.z.z.z.z.z.z.z.z.z.X , 5 8 U Y r u h 6 r a ~ Y / T Q t 0 h j i t r e 5 5 - z.z.z.z.z.z.z.z.z.z.z.z.z.z.z.z.z.z.",
"z.z.z.z.z.z.z.z.z.z.z.z.z.z.z.z.z.z.z.z.z.5 y g d K K h w u t U Q Q y w w m K k g u 5 . z.z.z.z.z.z.z.z.z.z.z.z.z.z.z.z.z.z.z.z.",
"z.z.z.z.z.z.z.z.z.z.z.z.z.z.z.z.z.z.z.z.z.: d J J F N 2 m k u u u u k 4 3 M F J J f < z.z.z.z.z.z.z.z.z.z.z.z.z.z.z.z.z.z.z.z.z.",
"z.z.z.z.z.z.z.z.z.z.z.z.z.z.z.z.z.z.z.z.z.; b A A G S v S J H H H H J S v B D A A n 1 z.z.z.z.z.z.z.z.z.z.z.z.z.z.z.z.z.z.z.z.z.",
"z.z.z.z.z.z.z.z.z.z.z.z.z.z.z.z.z.z.z.z.z.% c v v v S S Z A P P L P L Z C S B v v c % z.z.z.z.z.z.z.z.z.z.z.z.z.z.z.z.z.z.z.z.z.",
"z.z.z.z.z.z.z.z.z.z.z.z.z.z.z.z.z.z.z.z.z.@ = * % z c B Z P I I I I P A B c = * & * $ z.z.z.z.z.z.z.z.z.z.z.z.z.z.z.z.z.z.z.z.z.",
"z.z.z.z.z.z.z.z.z.z.z.z.z.z.z.z.z.z.z.z.z.o + o o O $ z B A I I P I L V x & + o o @ o z.z.z.z.z.z.z.z.z.z.z.z.z.z.z.z.z.z.z.z.z.",
"z.z.z.z.z.z.z.z.z.z.z.z.z.z.z.z.z.z.z.z.z.z.z.z.z.z.z.@ * B A A A A V = @ z.z.z.z.z.z.z.z.z.z.z.z.z.z.z.z.z.z.z.z.z.z.z.z.z.z.z.",
"z.z.z.z.z.z.z.z.z.z.z.z.z.z.z.z.z.z.z.z.z.z.z.z.z.z.z.z.@ x v v v v x @ z.z.z.z.z.z.z.z.z.z.z.z.z.z.z.z.z.z.z.z.z.z.z.z.z.z.z.z.",
"z.z.z.z.z.z.z.z.z.z.z.z.z.z.z.z.z.z.z.z.z.z.z.z.z.z.z.z.z.@ & & & & $ z.z.z.z.z.z.z.z.z.z.z.z.z.z.z.z.z.z.z.z.z.z.z.z.z.z.z.z.z.",
"z.z.z.z.z.z.z.z.z.z.z.z.z.z.z.z.z.z.z.z.z.z.z.z.z.z.z.z.z.z.o o o o   z.z.z.z.z.z.z.z.z.z.z.z.z.z.z.z.z.z.z.z.z.z.z.z.z.z.z.z.z.",
"z.z.z.z.z.z.z.z.z.z.z.z.z.z.z.z.z.z.z.z.z.z.z.z.z.z.z.z.z.z.z.z.z.z.z.z.z.z.z.z.z.z.z.z.z.z.z.z.z.z.z.z.z.z.z.z.z.z.z.z.z.z.z.z.",
"z.z.z.z.z.z.z.z.z.z.z.z.z.z.z.z.z.z.z.z.z.z.z.z.z.z.z.z.z.z.z.z.z.z.z.z.z.z.z.z.z.z.z.z.z.z.z.z.z.z.z.z.z.z.z.z.z.z.z.z.z.z.z.z.",
"z.z.z.z.z.z.z.z.z.z.z.z.z.z.z.z.z.z.z.z.z.z.z.z.z.z.z.z.z.z.z.z.z.z.z.z.z.z.z.z.z.z.z.z.z.z.z.z.z.z.z.z.z.z.z.z.z.z.z.z.z.z.z.z.",
"z.z.z.z.z.z.z.z.z.z.z.z.z.z.z.z.z.z.z.z.z.z.z.z.z.z.z.z.z.z.z.z.z.z.z.z.z.z.z.z.z.z.z.z.z.z.z.z.z.z.z.z.z.z.z.z.z.z.z.z.z.z.z.z.",
"z.z.z.z.z.z.z.z.z.z.z.z.z.z.z.z.z.z.z.z.z.z.z.z.z.z.z.z.z.z.z.z.z.z.z.z.z.z.z.z.z.z.z.z.z.z.z.z.z.z.z.z.z.z.z.z.z.z.z.z.z.z.z.z."
};
